<?xml version="1.0" encoding="utf-8"?><svg viewBox="0 0 169 176" xmlns="http://www.w3.org/2000/svg" xmlns:xlink="http://www.w3.org/1999/xlink"><style>:root>svg{display:none}:root>svg:target{display:block}</style><svg fill="none" viewBox="0 0 74 74" id="include--about-1" xmlns="http://www.w3.org/2000/svg"><path d="M24.14 35.078v18.385a1.278 1.278 0 001.292 1.277h21.946v12.486a3.345 3.345 0 01-3.359 3.317h0-13.937 0a3.344 3.344 0 01-3.359-3.317v-9.17h0v-.014a1.291 1.291 0 00-2.567 0h-.001v9.184a5.884 5.884 0 005.884 5.885h13.936a5.884 5.884 0 005.884-5.884V35.078v0a12.751 12.751 0 00-6.925-11.335V7.91a1.263 1.263 0 000-2.333V2.152A1.276 1.276 0 0041.642.875h-9.241a1.277 1.277 0 00-1.292 1.277s0 0 0 0v3.426a1.262 1.262 0 000 2.333v15.832a12.751 12.751 0 00-6.968 11.335zm8.784-9.358h.001a1.276 1.276 0 00.766-1.166v0-4.713h6.718v4.67h0a1.277 1.277 0 00.766 1.165h.001a10.227 10.227 0 016.113 8.082H26.812a10.226 10.226 0 016.112-8.038zm.767-22.291h6.718v2.053h-6.718V3.43zm0 4.592h6.718v9.324h-6.718V8.021zm13.687 44.165H26.723V36.355h20.655v15.831zm23.12 18.386a1.277 1.277 0 01-.032 2.553H54.629a1.276 1.276 0 110-2.553h.001a4.467 4.467 0 003.137-1.247l.004-.004h0a7.323 7.323 0 013.456-1.694V54.67A10.45 10.45 0 0152 43.185l1.339-12.827s0 0 0 0a1.277 1.277 0 011.276-1.15m15.883 41.364L54.615 29.334m15.883 41.238l-.004-.015a4.468 4.468 0 01-3.123-1.246h0l-.004-.004a7.323 7.323 0 00-3.456-1.695V54.656a10.449 10.449 0 009.256-11.485l-2.67 27.4zM54.615 29.209s0 0 0 0v.125m0-.125h0v.125m0-.125h15.836m-15.836.125H70.45m0-.125s0 0 0 0v.125m0-.125h0v.125m0-.125a1.277 1.277 0 011.277 1.149l1.065 9.183v.002l.374 3.627-2.716-13.836m-15.855 14.93h0v-.007a8.06 8.06 0 010-.833l1.283-11.662H69.33l.694 6.646H58.387a1.277 1.277 0 000 2.554h11.909l.261 2.492a7.996 7.996 0 11-15.961.837v-.028zM64.7 70.556h-4.163a4.44 4.44 0 014.163 0zm-45.302.001h.03a1.277 1.277 0 010 2.554H3.591a1.277 1.277 0 110-2.554h.002a4.468 4.468 0 003.137-1.246l.004-.004h0a7.322 7.322 0 013.427-1.694V54.655A10.45 10.45 0 01.933 43.17h0l1.368-12.827s0 0 0 0a1.277 1.277 0 011.276-1.149m15.821 41.363l1.168-40.201a1.152 1.152 0 00-1.152-1.037v-.125h0H3.577m15.821 41.363a4.468 4.468 0 01-3.137-1.246h0l-.004-.004a7.323 7.323 0 00-3.456-1.695V54.655a10.45 10.45 0 009.228-11.484h0l-.374-3.628h0l-.965-9.2s0 0 0 0l-1.292 40.214zM3.578 29.194s0 0 0 0v.125m0-.125h0v.125m0 0a1.152 1.152 0 00-1.153 1.037l1.152-1.037zM3.5 44.263h0v-.006a8.025 8.025 0 010-.833l1.225-11.676H18.22l.694 6.646H7.292a1.277 1.277 0 100 2.553H19.2l.261 2.493a7.996 7.996 0 11-15.961.836v-.013zm8.013 25.781a3.964 3.964 0 012.074.513H9.402a3.964 3.964 0 012.102-.513h.009z" fill="#fff" stroke="#fff" stroke-width=".25"/></svg><svg fill="none" viewBox="0 0 64 74" id="include--about-2" xmlns="http://www.w3.org/2000/svg"><path d="M59.358.775h0-24.881 0c-.909 0-1.785.322-2.477.904a3.853 3.853 0 00-2.476-.904h0H4.641A3.882 3.882 0 00.775 4.658v64.684a3.883 3.883 0 003.867 3.883h24.881c.909 0 1.785-.322 2.477-.903a3.854 3.854 0 002.476.903h24.882a3.882 3.882 0 003.867-3.883V4.658A3.883 3.883 0 0059.358.775zM60.4 69.342v0a1.1 1.1 0 01-1.1 1.1H34.478a1.1 1.1 0 01-1.1-1.1v-1.1h1.1a1.391 1.391 0 000-2.782h-1.1V8.54h1.1a1.391 1.391 0 100-2.783h-1.1v-1.1a1.1 1.1 0 011.1-1.1h24.88a1.1 1.1 0 011.1 1.1s0 0 0 0L60.4 69.342zm-30.112.778l.159.16-.16-.16a1.1 1.1 0 01-.777.322H4.643a1.099 1.099 0 01-.778-.322l-.159.16.16-.16a1.1 1.1 0 01-.323-.778V4.658a1.1 1.1 0 011.1-1.1h24.88a1.1 1.1 0 011.1 1.098v.002l-.012 1.1H29.51a1.391 1.391 0 100 2.782h1.1v56.92h-1.1a1.391 1.391 0 000 2.783h1.1v1.1a1.1 1.1 0 01-.322.777z" fill="#fff" stroke="#fff" stroke-width=".45"/><path d="M25.991 21.998v-.003a1.389 1.389 0 00-.463-.87 1.414 1.414 0 00-.925-.35H9.514c-.341.002-.67.126-.926.35a1.39 1.39 0 00-.462.87h0L6.857 32.083s0 0 0 0a10.06 10.06 0 00.283 3.968 10.117 10.117 0 001.8 3.558 10.25 10.25 0 003.042 2.602 10.36 10.36 0 003.62 1.223v7.888a3.1 3.1 0 01-.924 2.204 3.176 3.176 0 01-2.233.914c-.372 0-.73.146-.993.407a1.386 1.386 0 000 1.971c.264.26.62.407.993.407h9.11c.372 0 .73-.146.993-.407a1.386 1.386 0 000-1.97 1.413 1.413 0 00-.993-.408 3.177 3.177 0 01-2.233-.914 3.1 3.1 0 01-.924-2.204v-7.93a10.384 10.384 0 003.62-1.224 10.25 10.25 0 003.042-2.602 10.123 10.123 0 001.8-3.558 10.06 10.06 0 00.282-3.969l-1.15-10.041zM12.674 39.325a7.383 7.383 0 01-2.617-3.314h13.931a7.383 7.383 0 01-1.334 2.192l.008.01a7.468 7.468 0 01-2.532 1.834 7.545 7.545 0 01-3.107.645h-.002a7.517 7.517 0 01-4.347-1.367zm11.75-6.932c.046.276.076.554.09.834H9.581a7.384 7.384 0 01.012-.849l1.111-8.818H23.31l1.112 8.824h0l.002.01zM39.698 9.775h-.015l-.015.002a4.616 4.616 0 00-2.78 1.422A4.124 4.124 0 0035.775 14c0 1.031.397 2.026 1.113 2.8a4.616 4.616 0 002.78 1.423l.015.002h13.634l.015-.002a4.616 4.616 0 002.78-1.422A4.124 4.124 0 0057.225 14a4.124 4.124 0 00-1.113-2.8 4.616 4.616 0 00-2.78-1.423l-.016.116v-.118H39.698zm13.604 5.818H39.698c-.459 0-.896-.17-1.216-.471-.32-.3-.496-.704-.496-1.122 0-.418.176-.822.496-1.122.32-.3.757-.471 1.216-.471h13.604c.459 0 .896.17 1.216.471.32.3.496.704.496 1.122 0 .418-.176.822-.496 1.122-.32.3-.757.471-1.216.471zm1.48 7.632c.37 0 .732-.12 1.004-.344.274-.225.439-.54.439-.881 0-.34-.165-.656-.439-.881a1.59 1.59 0 00-1.004-.344H39.218c-.37 0-.732.12-1.004.344-.274.225-.439.54-.439.881 0 .34.165.656.439.881a1.59 1.59 0 001.004.344h15.564zM35.775 33c0 .338.16.653.426.879.266.225.62.346.982.346h17.634c.362 0 .716-.121.982-.346.267-.226.426-.54.426-.879 0-.338-.16-.653-.426-.879a1.526 1.526 0 00-.982-.346H37.183c-.362 0-.716.121-.982.346-.267.226-.426.54-.426.879zm1.412 6.225h12.627c.363 0 .717-.121.983-.346a1.15 1.15 0 00.428-.879c0-.339-.16-.654-.428-.88a1.532 1.532 0 00-.983-.345H37.186c-.364 0-.718.121-.984.346a1.15 1.15 0 00-.428.879c0 .339.16.654.428.88.266.224.62.345.983.345zm19.6-2.45h-2.574c-.37 0-.73.12-1.001.344-.273.225-.437.54-.437.881 0 .34.164.656.437.88.271.225.632.345 1 .345h2.575c.37 0 .73-.12 1.001-.344.273-.225.437-.54.437-.881 0-.34-.164-.656-.437-.88a1.579 1.579 0 00-1-.345zm-19.604 7.45h17.634c.362 0 .716-.121.982-.346.267-.226.426-.54.426-.879 0-.338-.16-.653-.426-.879a1.526 1.526 0 00-.982-.346H37.183c-.362 0-.716.121-.982.346-.267.226-.426.54-.426.879 0 .338.16.653.426.879.266.225.62.346.982.346zm.004 5h12.627c.363 0 .717-.121.983-.346a1.15 1.15 0 00.428-.879c0-.339-.16-.654-.428-.88a1.532 1.532 0 00-.983-.345H37.186c-.364 0-.718.121-.984.346a1.15 1.15 0 00-.428.879c0 .339.16.654.428.88.266.224.62.345.983.345zm19.6-2.45h-2.574c-.37 0-.73.12-1.001.344-.273.225-.437.54-.437.881 0 .34.164.656.437.88.271.225.632.345 1 .345h2.575c.37 0 .73-.12 1.001-.344.273-.225.437-.54.437-.881 0-.34-.164-.656-.437-.88l-.143.173.143-.174a1.579 1.579 0 00-1-.344zm-19.604 7.45h17.634c.362 0 .716-.121.982-.346.267-.226.426-.54.426-.879 0-.338-.16-.653-.426-.879a1.526 1.526 0 00-.982-.346H37.183c-.362 0-.716.121-.982.346-.267.226-.426.54-.426.879 0 .338.16.653.426.879.266.225.62.346.982.346zm12.63 2.55H37.186c-.363 0-.717.121-.983.346a1.15 1.15 0 00-.428.879c0 .339.16.654.428.88.266.224.62.345.983.345h12.627c.364 0 .718-.121.984-.346a1.15 1.15 0 00.428-.879c0-.339-.16-.654-.428-.88a1.532 1.532 0 00-.983-.345zm6.974 0h-2.574c-.37 0-.73.12-1.001.344-.273.225-.437.54-.437.881 0 .34.164.656.437.88.271.225.632.345 1 .345h2.575c.37 0 .73-.12 1.001-.344.273-.225.437-.54.437-.881 0-.34-.164-.656-.437-.88l-.143.173.143-.174a1.579 1.579 0 00-1-.344z" fill="#fff" stroke="#fff" stroke-width=".45"/></svg><svg fill="none" viewBox="0 0 84 73" id="include--about-3" xmlns="http://www.w3.org/2000/svg"><path d="M81.547 60.761H75.6a33.806 33.806 0 00-1.53-8.77 1.4 1.4 0 00-2.67.84 31.013 31.013 0 011.394 7.93H70.56V46.733C78.103 45.876 84 38.216 84 28.925a20.377 20.377 0 00-2.722-10.332 1.394 1.394 0 00-1.21-.688h-21.84a1.394 1.394 0 00-1.21.688 20.932 20.932 0 00.236 21.05 1.4 1.4 0 002.386-1.461 17.47 17.47 0 01-2.52-9.24v-.806h24.057v.806c0 8.4-5.41 15.12-12.046 15.12a10.383 10.383 0 01-6.888-2.705 1.41 1.41 0 00-1.982.135 1.395 1.395 0 00.219 1.915 13.322 13.322 0 007.324 3.36v14.028H10.08a30.946 30.946 0 015.325-16.078 1.394 1.394 0 00-.285-1.915 1.411 1.411 0 00-1.949.37 33.717 33.717 0 00-5.813 17.64H1.394A1.394 1.394 0 000 62.206v2.436a7.51 7.51 0 007.526 7.493H23.52a1.394 1.394 0 100-2.79H7.526a4.72 4.72 0 01-4.72-4.703v-1.16h64.931v1.68h-1.394a5.612 5.612 0 00-5.427 4.184H28.862a1.394 1.394 0 100 2.789h47.292c.184.002.367-.032.538-.101a7.51 7.51 0 006.266-7.392v-2.487a1.395 1.395 0 00-1.411-1.394zM57.439 25.347a17.07 17.07 0 011.68-4.637h20.16a17.085 17.085 0 011.68 4.637h-23.52zm6.4 44.066a2.805 2.805 0 012.504-1.411h5.61a2.805 2.805 0 012.42 1.394l-10.534.017zm16.313-4.771a4.705 4.705 0 01-2.873 4.401 5.61 5.61 0 00-5.308-3.813h-1.412v-1.68h9.61v1.092h-.017z" fill="#fff"/><path d="M50.853 29.362a34.222 34.222 0 00-4.401-.94 6.216 6.216 0 001.327-3.848 6.308 6.308 0 10-12.617 0 6.216 6.216 0 001.327 3.847 34.002 34.002 0 00-19.185 9.677 1.396 1.396 0 001.982 1.965 31.263 31.263 0 0122.193-9.156c2.914-.001 5.814.4 8.618 1.193a1.398 1.398 0 10.773-2.688l-.017-.05zm-9.374-1.294a3.495 3.495 0 113.511-3.494 3.493 3.493 0 01-3.511 3.562v-.068z" fill="#fff"/><path d="M25.3 28.404L18.8 1.037a1.412 1.412 0 00-2.722 0L3.074 55.755a1.394 1.394 0 001.042 1.68h.319a1.394 1.394 0 001.36-1.076l5.965-25.031a46.852 46.852 0 009.861-6.267l.941 3.999a1.398 1.398 0 002.722-.639l.017-.017zm-12.7-.722l4.82-20.345 3.461 14.55a40.724 40.724 0 01-8.282 5.795z" fill="#fff"/><path d="M81.547 60.761H75.6a33.806 33.806 0 00-1.53-8.77 1.4 1.4 0 00-2.67.84 31.013 31.013 0 011.394 7.93H70.56V46.733C78.103 45.876 84 38.216 84 28.925a20.377 20.377 0 00-2.722-10.332 1.394 1.394 0 00-1.21-.688h-21.84a1.394 1.394 0 00-1.21.688 20.932 20.932 0 00.236 21.05 1.4 1.4 0 002.386-1.461 17.47 17.47 0 01-2.52-9.24v-.806h24.057v.806c0 8.4-5.41 15.12-12.046 15.12a10.383 10.383 0 01-6.888-2.705 1.41 1.41 0 00-1.982.135 1.395 1.395 0 00.219 1.915 13.322 13.322 0 007.324 3.36v14.028H10.08a30.946 30.946 0 015.325-16.078 1.394 1.394 0 00-.285-1.915 1.411 1.411 0 00-1.949.37 33.717 33.717 0 00-5.813 17.64H1.394A1.394 1.394 0 000 62.206v2.436a7.51 7.51 0 007.526 7.493H23.52a1.394 1.394 0 100-2.79H7.526a4.72 4.72 0 01-4.72-4.703v-1.16h64.931v1.68h-1.394a5.612 5.612 0 00-5.427 4.184H28.862a1.394 1.394 0 100 2.789h47.292c.184.002.367-.032.538-.101a7.51 7.51 0 006.266-7.392v-2.487a1.395 1.395 0 00-1.411-1.394zM57.439 25.347a17.07 17.07 0 011.68-4.637h20.16a17.085 17.085 0 011.68 4.637h-23.52zm6.4 44.066a2.805 2.805 0 012.504-1.411h5.61a2.805 2.805 0 012.42 1.394l-10.534.017zm16.313-4.771a4.705 4.705 0 01-2.873 4.401 5.61 5.61 0 00-5.308-3.813h-1.412v-1.68h9.61v1.092h-.017z" fill="#fff"/><path d="M50.853 29.362a34.222 34.222 0 00-4.401-.94 6.216 6.216 0 001.327-3.848 6.308 6.308 0 10-12.617 0 6.216 6.216 0 001.327 3.847 34.002 34.002 0 00-19.185 9.677 1.396 1.396 0 001.982 1.965 31.263 31.263 0 0122.193-9.156c2.914-.001 5.814.4 8.618 1.193a1.398 1.398 0 10.773-2.688l-.017-.05zm-9.374-1.294a3.495 3.495 0 113.511-3.494 3.493 3.493 0 01-3.511 3.562v-.068z" fill="#fff"/><path d="M25.3 28.404L18.8 1.037a1.412 1.412 0 00-2.722 0L3.074 55.755a1.394 1.394 0 001.042 1.68h.319a1.394 1.394 0 001.36-1.076l5.965-25.031a46.852 46.852 0 009.861-6.267l.941 3.999a1.398 1.398 0 002.722-.639l.017-.017zm-12.7-.722l4.82-20.345 3.461 14.55a40.724 40.724 0 01-8.282 5.795z" fill="#fff"/></svg><svg fill="none" viewBox="0 0 169 176" id="include--logo" xmlns="http://www.w3.org/2000/svg"><path fill="#7A0000" d="M72 58h25v9H72z"/><path d="M106.477 62.333v26.005c0 1.975-.681 2.652-2.669 2.708H91.542c-.625 0-1.25.057-1.59-.733-.114-.226-.625-.339-.909-.339-.568-.056-1.136 0-1.703 0-1.477 0-1.534-.056-1.534-1.466V69.215c0-1.015.341-1.41 1.363-1.636 4.316-.79 7.27-4.287 7.27-8.63V44.62c0-1.354-.058-1.41-1.477-1.41h-6.19c-.852 0-1.25-.283-1.193-1.185.057-1.185.114-2.426 0-3.61-.34-3.385 1.022-6.206 3.124-8.744 1.022-1.241 2.044-2.539 2.839-3.949.625-1.128 1.079-2.426 1.136-3.667.113-5.415.056-10.83 0-16.246 0-2.369-.114-2.143 2.1-2.143h3.408c1.363 0 1.363.056 1.363 1.354 0 5.584.057 11.169 0 16.753 0 1.636.454 3.046 1.42 4.344 1.135 1.523 2.328 3.046 3.464 4.57 1.363 1.917 2.101 4.004 2.101 6.43-.057 8.405-.057 16.81-.057 25.215zm-43.386-.113c0-8.066.114-16.133-.056-24.2-.057-3.046.965-5.471 2.669-7.84 1.362-1.862 2.725-3.78 3.918-5.754.397-.677.454-1.636.51-2.426.058-5.641 0-11.338 0-16.98 0-1.353 0-1.353 1.364-1.353 1.42 0 2.84.056 4.259 0 1.079-.057 1.363.395 1.363 1.354 0 5.246.17 10.492 0 15.682-.114 2.933 1.079 5.19 2.84 7.39 1.362 1.748 2.498 3.666 3.577 5.584.397.733.454 1.692.454 2.595.057 1.861 0 3.723.057 5.64.057 1.016-.34 1.298-1.306 1.242-2.045-.057-4.146 0-6.19-.057-.965 0-1.306.339-1.306 1.298v15.061c0 4.006 3.237 7.22 6.985 8.01 1.647.34 1.647.283 1.647 1.919v19.123c0 1.354-.057 1.354-1.363 1.354h-1.931c-.568 0-1.08 0-1.25.733-.056.17-.51.395-.738.395H64.738c-.908 0-1.42-.451-1.476-1.354-.057-.62-.114-1.241-.114-1.918V62.164c-.17.056-.114.056-.057.056zm-50.484 75.59v-21.943h4.827c.852 0 1.647.112 2.385.282a4.983 4.983 0 011.817.902c.511.452.909 1.016 1.193 1.749.284.733.397 1.636.397 2.764 0 .903-.113 1.636-.34 2.256-.228.621-.512 1.129-.966 1.524-.397.394-.965.62-1.59.733.795.169 1.42.451 1.93.902.512.452.91 1.072 1.137 1.806.227.733.397 1.635.397 2.707 0 1.072-.114 1.975-.34 2.764-.228.79-.569 1.467-1.023 2.031-.454.508-1.022.959-1.703 1.185-.682.282-1.477.395-2.442.395h-5.68v-.057zm3.634-12.974h1.193c.738 0 1.25-.113 1.647-.339.397-.225.681-.62.795-1.071.17-.508.227-1.129.227-1.862 0-.79-.114-1.354-.34-1.805-.228-.451-.569-.733-1.08-.846-.454-.169-1.079-.226-1.817-.226h-.681v6.149h.056zm0 10.154h1.363c1.08 0 1.818-.282 2.215-.903.398-.62.568-1.523.568-2.708 0-.902-.114-1.579-.284-2.143a2.315 2.315 0 00-.909-1.241c-.454-.282-1.022-.395-1.703-.395h-1.25v7.39zm9.995 2.82v-21.943h2.953v13.877l5.395-13.877h2.385v21.943h-2.953v-14.046l-5.395 14.046h-2.385zm13.799 0v-21.943h3.578v9.195h4.032v-9.195h3.578v21.943h-3.578v-9.928h-4.032v9.928h-3.578zm14.197 0v-21.943h3.578v9.195h4.032v-9.195h3.577v21.943h-3.577v-9.928H57.81v9.928h-3.578zm14.254 0v-21.943h3.578v9.195h.851c1.363 0 2.442.225 3.35.62.91.395 1.59 1.072 2.045 2.031.454.959.682 2.2.682 3.779 0 1.241-.114 2.257-.398 3.103-.284.846-.681 1.467-1.25 1.974-.51.508-1.192.846-1.93 1.016-.738.225-1.647.282-2.612.282h-4.316v-.057zm3.578-2.707h.738c.681 0 1.249-.113 1.646-.339a2.04 2.04 0 00.91-1.128c.17-.564.283-1.298.283-2.257 0-1.128-.227-2.03-.625-2.594-.397-.621-1.192-.903-2.271-.903h-.681v7.221zm8.745 2.707v-21.943h3.577v21.943H80.81zm6.587 0v-21.943h8.234v2.82h-4.656v6.318h3.691v2.764h-3.691v7.277h4.713v2.764h-8.29zm16.355 0v-21.943h2.953v13.877l5.395-13.877h2.385v21.943h-2.953v-14.046l-5.395 14.046h-2.385zm13.8 0v-21.943h8.347v2.933h-4.77v19.01h-3.577zm10.278 0v-21.943h5.792c1.193 0 2.158.225 2.897.733a4.232 4.232 0 011.646 2.144c.341.959.512 2.03.512 3.384 0 1.41-.228 2.595-.682 3.441-.454.903-1.022 1.523-1.817 1.918-.795.395-1.704.621-2.783.621h-1.93v9.759h-3.635v-.057zm3.635-12.579h1.362c.625 0 1.136-.113 1.534-.339a1.72 1.72 0 00.738-1.015 7.558 7.558 0 00.227-1.862c0-.789-.057-1.466-.17-1.918-.114-.507-.341-.846-.682-1.071-.34-.226-.908-.339-1.647-.339h-1.362v6.544zm9.256 12.579v-21.943h3.577v9.195h.852c1.363 0 2.442.225 3.351.62.908.395 1.59 1.072 2.044 2.031.454.959.681 2.2.681 3.779 0 1.241-.113 2.257-.397 3.103-.284.846-.682 1.467-1.249 1.974-.511.508-1.193.846-1.931 1.016-.738.225-1.647.282-2.612.282h-4.316v-.057zm3.577-2.707h.739c.681 0 1.249-.113 1.646-.339.398-.226.739-.62.909-1.128.17-.564.284-1.298.284-2.257 0-1.128-.227-2.03-.625-2.594-.397-.621-1.192-.903-2.271-.903h-.682v7.221zm8.746 2.707v-21.943h3.577v21.943h-3.577zM1.022 112.2V97.308h3.294c.568 0 1.136.056 1.59.169.454.113.909.338 1.25.62.34.282.624.677.794 1.185.17.508.284 1.128.284 1.862 0 .62-.057 1.128-.227 1.523-.17.451-.34.789-.625 1.015-.284.226-.624.395-1.079.508.512.113.966.282 1.307.62.34.339.624.734.795 1.241.17.508.227 1.128.227 1.805 0 .734-.057 1.354-.227 1.862-.17.564-.398 1.015-.682 1.354-.34.338-.681.62-1.192.79a4.782 4.782 0 01-1.647.282H1.022v.056zm2.442-8.8h.795c.454 0 .852-.056 1.136-.226.284-.169.454-.395.568-.733.113-.338.17-.733.17-1.241 0-.508-.057-.959-.227-1.241-.17-.282-.398-.508-.738-.564a3.796 3.796 0 00-1.193-.17h-.51v4.175zm0 6.882h.909c.738 0 1.249-.226 1.476-.62.284-.395.398-1.016.398-1.862 0-.621-.057-1.072-.17-1.467-.114-.395-.341-.677-.625-.846-.284-.169-.682-.282-1.136-.282h-.852v5.077zm6.758 1.918V97.308h2.442v6.261h.568c.908 0 1.647.113 2.271.395a2.65 2.65 0 011.363 1.354c.284.62.454 1.467.454 2.538 0 .847-.113 1.523-.284 2.088-.17.564-.454 1.015-.851 1.353-.341.339-.795.565-1.306.677-.512.113-1.08.226-1.76.226h-2.897zm2.385-1.862h.511c.454 0 .852-.056 1.136-.225.284-.169.51-.395.625-.79.113-.395.17-.902.17-1.523 0-.79-.114-1.354-.398-1.749-.284-.395-.795-.62-1.533-.62h-.454v4.907h-.057zm5.963 1.862V97.308h2.442V112.2H18.57zm4.429 0V97.308h5.622v1.918h-3.18v4.287h2.498v1.918h-2.498v4.907h3.18v1.862h-5.622zm10.221.226c-.794 0-1.476-.17-1.987-.508a2.963 2.963 0 01-1.136-1.467c-.227-.62-.34-1.41-.34-2.256v-.508h2.271v.508c0 .677.114 1.184.284 1.579.17.339.511.508.966.508.34 0 .568-.113.738-.282.17-.169.284-.451.34-.79.057-.338.114-.789.114-1.241 0-.733-.113-1.354-.397-1.805-.284-.451-.739-.677-1.477-.733h-.624v-1.805h.566c.739-.057 1.25-.282 1.534-.677.284-.395.397-1.016.397-1.749 0-.621-.113-1.128-.284-1.467-.17-.338-.51-.507-1.022-.507-.454 0-.795.169-.965.564-.17.395-.284.846-.341 1.466v.677h-2.272v-.733c0-.846.17-1.58.455-2.144.284-.62.681-1.071 1.25-1.353.51-.339 1.192-.452 1.93-.452s1.42.17 1.93.452c.512.338.966.733 1.25 1.353.284.565.454 1.298.454 2.144 0 .903-.17 1.636-.51 2.2-.342.564-.74.959-1.25 1.128.34.169.624.339.908.677.284.282.455.677.625 1.128.17.452.227 1.072.227 1.749 0 .903-.113 1.692-.34 2.369a3.266 3.266 0 01-1.136 1.58c-.625.169-1.306.395-2.158.395zm4.373 2.707v-4.907h.455c.227-.113.454-.339.624-.564.228-.226.398-.508.568-.903a6.49 6.49 0 00.455-1.467c.113-.62.284-1.297.34-2.2.114-.846.17-1.861.228-3.046l.284-4.795h5.905v12.918h1.42v4.908h-1.704l-.17-2.933h-6.53l-.17 2.933h-1.705v.056zm2.783-4.907h3.862V99.282h-1.704l-.17 3.272c-.057 1.184-.114 2.143-.227 2.99a37.683 37.683 0 01-.341 2.03 5.747 5.747 0 01-.454 1.298c-.17.338-.341.62-.512.79a4.012 4.012 0 01-.454.564zm8.916 1.974V97.308h2.385v6.205h2.726v-6.205h2.441V112.2h-2.441v-6.713h-2.726v6.713h-2.385zm9.597 0V97.308h2.442v6.261h.568c.908 0 1.646.113 2.271.395a2.65 2.65 0 011.363 1.354c.284.62.454 1.467.454 2.538 0 .847-.113 1.523-.284 2.088-.17.564-.454 1.015-.851 1.353-.341.339-.795.565-1.307.677-.51.113-1.078.226-1.76.226H58.89zm2.442-1.862h.51c.455 0 .853-.056 1.137-.225.284-.169.51-.395.624-.79.114-.395.17-.902.17-1.523 0-.79-.113-1.354-.397-1.749-.284-.395-.795-.62-1.533-.62h-.511v4.907zm5.962 1.862V97.308h2.442V112.2h-2.442zm4.43 0V97.308h5.622v1.918h-3.18v4.287h2.498v1.918h-2.498v4.907h3.18v1.862h-5.622zm10.278 2.933v-4.907h.455c.227-.113.454-.339.624-.564.228-.226.398-.508.568-.903a6.49 6.49 0 00.455-1.467c.113-.62.284-1.297.34-2.2.114-.846.17-1.861.228-3.046l.283-4.795h5.906v12.918h1.42v4.908h-1.704l-.17-2.933h-6.587l-.17 2.933H82v.056zm2.783-4.907h3.862V99.282h-1.704l-.17 3.272c-.057 1.184-.114 2.143-.228 2.99a37.783 37.783 0 01-.34 2.03 5.752 5.752 0 01-.454 1.298c-.17.338-.341.62-.512.79a4.019 4.019 0 01-.454.564zm8.859 1.974V97.308h5.622v1.918h-3.18v4.287h2.498v1.918h-2.498v4.907h3.18v1.862h-5.622zm7.098 0V97.308h5.622v1.974h-3.237v12.862h-2.385v.056zm6.815 2.595v-1.918c.511.056.965 0 1.249-.056.341-.057.568-.17.738-.395.171-.17.284-.452.341-.734.057-.338 0-.677-.057-1.128l-2.839-13.313h2.272l1.135 6.205.625 4.344.511-4.344.965-6.205h2.272l-2.555 13.595c-.114.621-.228 1.185-.398 1.636a4.275 4.275 0 01-.454 1.128c-.171.339-.455.564-.739.734-.34.169-.738.282-1.192.338-.511.113-1.136.113-1.874.113zm12.039-2.426c-.965 0-1.761-.225-2.272-.62-.567-.452-.965-1.016-1.135-1.749-.227-.733-.341-1.58-.341-2.538v-5.359c0-1.016.114-1.918.341-2.652a3.768 3.768 0 011.135-1.748c.511-.452 1.307-.621 2.272-.621.909 0 1.647.17 2.158.508.511.338.908.846 1.136 1.523.227.677.34 1.41.34 2.256v1.241h-2.328v-1.297c0-.395 0-.79-.057-1.128-.057-.339-.17-.62-.34-.79-.171-.226-.455-.282-.909-.282s-.738.113-.909.338c-.17.226-.34.508-.397.846-.057.339-.057.79-.057 1.241v6.488c0 .564.057.959.114 1.353.056.339.227.621.397.79.227.169.454.282.852.282.397 0 .681-.113.852-.338.17-.226.284-.508.34-.846.057-.339.057-.734.057-1.185v-1.354h2.329v1.185c0 .902-.114 1.636-.341 2.313-.227.677-.568 1.184-1.079 1.579-.454.395-1.193.564-2.158.564zm6.644-.169V99.282h-2.101v-1.974h6.644v1.974h-2.101v12.862h-2.442v.056zm5.054 0l2.669-14.892h2.612l2.669 14.892h-2.271l-.511-3.441h-2.329l-.568 3.441h-2.271zm3.067-5.19h1.817l-.909-6.261-.908 6.261zm13.799 8.123l-.284-2.933h-7.326V97.308h2.442v12.974h3.01V97.308h2.442v12.974h1.533v4.851h-1.817zm3.237-2.933V97.308h1.988v9.364l3.634-9.364h1.647V112.2h-1.988v-9.533l-3.691 9.533h-1.59zm9.313 0V97.308h1.988v9.364l3.634-9.364h1.647V112.2h-1.988v-9.533l-3.691 9.533h-1.59zM29.473 154.959v-8.462h1.079v3.667h1.93v-3.667h1.023v8.462h-1.08v-3.949h-1.93v3.949h-1.022zm4.827 0l1.59-8.462h1.022l1.59 8.462H37.48l-.34-2.144h-1.534l-.34 2.144H34.3zm1.533-2.99h1.25l-.625-3.836-.625 3.836zm5.622 2.99v-8.462h1.079v3.78h.398l1.362-3.78h1.08l-1.477 4.006 1.704 4.456h-1.08l-1.533-4.118h-.397v4.118h-1.136zm6.701.056c-.511 0-.908-.112-1.25-.338-.283-.226-.51-.564-.68-.959-.114-.395-.171-.903-.171-1.467v-3.215c0-.564.057-1.015.227-1.41.114-.395.34-.734.682-.903.284-.226.681-.338 1.192-.338.511 0 .909.112 1.193.338.284.226.51.508.624.903.114.395.227.846.227 1.41v3.215c0 .564-.056 1.016-.227 1.467a1.9 1.9 0 01-.624.959c-.284.226-.682.338-1.193.338zm0-.902c.284 0 .511-.057.625-.169.17-.113.227-.282.284-.564.056-.226.056-.508.056-.847v-3.723c0-.338 0-.564-.056-.789a1.09 1.09 0 00-.284-.508c-.17-.113-.341-.169-.625-.169s-.511.056-.625.169c-.17.113-.227.282-.283.508-.057.225-.057.507-.057.789v3.723c0 .339 0 .564.056.847.057.225.17.394.284.564.114.112.341.169.625.169zm3.124.846v-8.462h1.873c.455 0 .795.113 1.08.283.283.169.454.451.567.789.114.339.17.79.17 1.241 0 .452-.056.846-.227 1.185-.113.338-.34.564-.624.733a1.973 1.973 0 01-1.023.282h-.851v3.949h-.966zm1.021-4.795h.512c.283 0 .567-.056.738-.113.17-.056.284-.225.397-.395.057-.169.114-.451.114-.789 0-.395 0-.734-.057-.903-.057-.225-.17-.338-.34-.451a2.63 2.63 0 00-.796-.113h-.51v2.764H52.3zm3.465 4.795v-8.462h4.145v8.462h-1.079v-7.615h-2.044v7.615h-1.022zm7.269.056c-.512 0-.91-.112-1.25-.338-.284-.226-.51-.564-.681-.959-.114-.395-.17-.903-.17-1.467v-3.215c0-.564.056-1.015.227-1.41.113-.395.34-.734.681-.903.284-.226.681-.338 1.193-.338.51 0 .908.112 1.192.338.284.226.511.508.625.903.113.395.227.846.227 1.41v3.215c0 .564-.057 1.016-.227 1.467a1.9 1.9 0 01-.625.959c-.284.226-.681.338-1.193.338zm0-.902c.283 0 .51-.057.624-.169.17-.113.227-.282.284-.564.057-.226.057-.508.057-.847v-3.723c0-.338 0-.564-.057-.789a1.09 1.09 0 00-.284-.508c-.17-.113-.34-.169-.624-.169s-.512.056-.625.169c-.17.113-.227.282-.284.508-.057.225-.057.507-.057.789v3.723c0 .339 0 .564.057.847.057.225.17.394.284.564.113.112.34.169.625.169zm3.123.846v-8.462h1.874c.454 0 .795.113 1.079.283.284.169.454.451.567.789.114.339.17.79.17 1.241 0 .452-.056.846-.226 1.185-.114.338-.341.564-.625.733a1.973 1.973 0 01-1.022.282h-.852v3.949h-.965zm1.022-4.795h.511c.284 0 .568-.056.738-.113.17-.056.284-.225.398-.395.056-.169.113-.451.113-.789 0-.395 0-.734-.056-.903-.057-.225-.17-.338-.341-.451a2.629 2.629 0 00-.795-.113h-.511v2.764h-.057zm2.953 4.795l1.59-8.462h1.022l1.59 8.462h-1.022l-.34-2.144h-1.534l-.34 2.144h-.966zm1.476-2.99h1.25l-.625-3.836-.625 3.836zm4.089 2.99V147.4h-1.306v-.903h3.578v.903h-1.25v7.559h-1.022zm3.067 0v-8.462h.908v5.867l2.215-5.867h.738v8.462h-.908v-5.923l-2.215 5.923h-.738zm5.054 0v-8.462h1.76c.34 0 .625.057.909.113.227.057.454.226.624.395.17.169.284.395.398.677.057.282.113.564.113.959 0 .339-.056.677-.113.903a1.11 1.11 0 01-.34.62c-.171.169-.342.226-.626.282.284.057.568.226.739.395.17.169.34.395.397.733.114.282.114.621.114 1.016 0 .338-.057.677-.114 1.015-.057.282-.17.564-.34.79-.17.226-.341.395-.625.508-.227.112-.511.169-.852.169h-2.044v-.113zm1.079-4.964h.624c.284 0 .511-.056.682-.113.17-.113.284-.226.34-.451.057-.226.114-.508.114-.79 0-.395-.057-.677-.17-.846a.831.831 0 00-.511-.339c-.228-.056-.512-.056-.852-.056h-.227v2.595zm0 4.118h.738c.454 0 .795-.113.965-.395.17-.226.227-.621.227-1.185 0-.338-.056-.677-.113-.902-.057-.226-.227-.395-.398-.564-.17-.113-.454-.17-.738-.17h-.625v3.216h-.056zm3.804 2.2l-.17-.508c.17-.056.284-.169.398-.338a.951.951 0 00.17-.564h-.511v-1.185h1.022v1.185c0 .394-.057.677-.227.902-.17.226-.398.395-.682.508zm4.771-1.354V147.4h-1.306v-.903h3.577v.903h-1.25v7.559h-1.021zm3.009 0v-8.462h.909v5.867l2.215-5.867h.738v8.462h-.909v-5.923l-2.214 5.923h-.739zm5.111 0l.114-8.462h1.022l1.363 6.883 1.363-6.883h1.022l.114 8.462h-.852l-.057-6.149-1.306 6.149h-.625l-1.249-6.149-.057 6.149h-.852zm6.19 0v-8.462h3.237v.847h-2.215v2.651h.227c.568 0 1.022.056 1.363.226.341.169.625.394.795.733.171.338.284.846.284 1.523 0 .451-.057.79-.113 1.128-.114.282-.228.564-.455.79-.17.226-.454.338-.738.451-.284.113-.625.113-1.079.113h-1.306zm1.022-.846h.284c.284 0 .568-.057.795-.113.227-.056.341-.226.454-.451.114-.226.171-.564.171-1.072 0-.564-.114-1.015-.284-1.241-.171-.226-.568-.339-1.079-.339h-.284v3.216h-.057zm3.578.846v-8.462h.908v5.867l2.215-5.867h.738v8.462h-.908v-5.923l-2.215 5.923h-.738zm4.543 0v-.903c.113 0 .284 0 .397-.056.114 0 .227-.113.284-.226.114-.112.171-.282.227-.507.057-.226.114-.508.171-.903.057-.395.113-.846.113-1.467l.227-4.512h3.351v8.461h-1.079v-7.559h-1.363l-.17 3.61c-.057.565-.057 1.016-.114 1.467-.057.451-.113.79-.227 1.128a2.572 2.572 0 01-.398.79c-.17.226-.34.339-.624.451-.171.226-.454.226-.795.226zm5.508 1.523v-2.369h.341l.341-.339c.113-.112.227-.338.284-.564.113-.225.17-.507.227-.902.057-.339.113-.79.227-1.354.057-.564.114-1.185.114-1.974l.113-2.483h3.18v7.616H128v2.369h-.796l-.056-1.523H123.4l-.057 1.523h-.909zm1.306-2.369h2.442V147.4h-1.249l-.057 1.918c0 .733-.057 1.41-.113 1.918-.057.508-.114.959-.171 1.241-.057.338-.17.62-.227.79-.113.225-.17.395-.284.507-.113.057-.227.226-.341.339zm5.054.846v-8.462h.909v5.867l2.215-5.867h.738v8.462h-.909v-5.923l-2.214 5.923h-.739zm5.111 0v-8.462h1.079v3.667h1.931v-3.667h1.079v8.462h-1.079v-3.949h-1.931v3.949h-1.079zm5.225 0v-8.462h2.896v.903h-1.817v7.559h-1.079zm3.577 1.354l-.17-.508c.17-.056.284-.169.398-.338a.955.955 0 00.17-.564h-.568v-1.185h1.022v1.185c0 .394-.057.677-.227.902-.113.226-.341.395-.625.508zM1.59 169.738v-2.369h.34l.342-.338c.113-.113.227-.339.283-.564.114-.226.17-.508.228-.903.056-.338.17-.79.227-1.354.057-.564.113-1.184.113-1.974l.114-2.482h3.18v7.615h.738v2.369H6.36l-.057-1.523H2.5l-.057 1.523H1.59zm1.363-2.369h2.442v-6.713h-1.25l-.056 1.918c0 .734-.057 1.411-.114 1.918a16.75 16.75 0 01-.17 1.241c-.057.339-.17.621-.227.79-.114.226-.17.395-.284.508-.17.056-.227.225-.341.338zm4.997.846v-8.461h2.953v.902H9.03v2.821h1.533v.846H9.03v3.103h1.874v.846H7.95v-.057zm3.805 0v-8.461h1.08v3.667h1.93v-3.667h1.079v8.461h-1.08v-3.948h-1.93v3.948h-1.079zm5.281 0v-8.461h1.08v3.497h.283c.568 0 1.023.057 1.363.226.34.169.625.395.795.733.17.339.284.846.284 1.523 0 .452-.057.79-.113 1.129-.114.282-.228.564-.455.789-.17.226-.454.339-.738.452-.284.112-.625.112-1.079.112h-1.42zm1.023-.846h.34c.341 0 .568-.056.795-.113.228-.056.341-.225.455-.451.113-.226.17-.564.17-1.072 0-.564-.114-1.015-.284-1.241-.227-.225-.568-.338-1.079-.338h-.34v3.215h-.057zm5.735.846v-8.461h1.874c.454 0 .795.113 1.079.282.284.169.454.451.568.79.113.338.17.789.17 1.241 0 .451-.057.846-.227 1.184-.114.339-.34.564-.625.734a1.973 1.973 0 01-1.022.282h-.852v3.948h-.965zm1.022-4.794h.511c.284 0 .568-.057.738-.113.17-.057.284-.226.398-.395a2.6 2.6 0 00.113-.79c0-.395 0-.733-.056-.903-.057-.225-.17-.338-.341-.451a2.66 2.66 0 00-.795-.113h-.511v2.765h-.057zm5.395 4.851c-.511 0-.909-.113-1.25-.339-.283-.225-.51-.564-.68-.959-.114-.394-.171-.902-.171-1.466v-3.216c0-.564.057-1.015.227-1.41.114-.395.34-.733.681-.902.284-.226.682-.339 1.193-.339s.909.113 1.193.339c.284.225.51.507.624.902.114.395.227.846.227 1.41v3.216c0 .564-.056 1.015-.227 1.466-.113.395-.34.734-.624.959-.284.226-.682.339-1.193.339zm0-.903c.284 0 .511-.056.625-.169.17-.113.227-.282.284-.564.056-.226.056-.508.056-.846v-3.723c0-.339 0-.564-.056-.79a1.09 1.09 0 00-.284-.508c-.17-.113-.341-.169-.625-.169s-.511.056-.625.169c-.17.113-.227.282-.284.508-.056.226-.056.508-.056.79v3.723c0 .338 0 .564.056.846.057.226.17.395.284.564.114.113.341.169.625.169zm2.556.846l1.76-4.343-1.59-4.118h1.022l1.42 4.061h.057v-4.061h.908v4.061h.057l1.42-4.061h1.022l-1.59 4.118 1.76 4.343h-1.022l-1.59-4.23h-.057v4.23h-.908v-4.23h-.057l-1.59 4.23h-1.022zm6.36 1.523v-2.369h.34l.341-.338c.114-.113.227-.339.284-.564.114-.226.17-.508.227-.903.057-.338.17-.79.227-1.354a18.58 18.58 0 00.114-1.974l.114-2.482h3.18v7.615h.738v2.369h-.795l-.057-1.523h-3.748l-.057 1.523h-.908zm1.363-2.369h2.441v-6.713h-1.249l-.057 1.918c0 .734-.056 1.411-.113 1.918-.057.508-.114.959-.17 1.241-.057.339-.17.621-.228.79-.113.226-.17.395-.284.508-.17.056-.227.225-.34.338zm4.997.846v-8.461h2.953v.902h-1.874v2.821h1.533v.846h-1.533v3.103h1.874v.846h-2.953v-.057zm3.805 0v-8.461h1.079v3.667h1.93v-3.667h1.08v8.461H52.3v-3.948h-1.93v3.948h-1.08zm5.281 0v-8.461h.909v5.867l2.214-5.867h.739v8.461h-.909v-5.923l-2.215 5.923h-.738zm4.6 0l1.59-3.779a1.661 1.661 0 01-.795-.846c-.227-.395-.284-.903-.284-1.467 0-.451.057-.846.227-1.185.17-.338.398-.62.738-.846.341-.225.795-.282 1.42-.282h1.533v8.462h-1.079v-3.498h-.85l-1.307 3.498h-1.192v-.057zm2.953-4.4h.397v-3.271h-.397c-.454 0-.852.112-1.08.338-.226.226-.34.621-.34 1.128 0 .621.114 1.072.34 1.354.171.339.512.451 1.08.451zm4.77 4.4v-8.461h.908v5.867l2.215-5.867h.738v8.461h-.908v-5.923l-2.215 5.923h-.738zm6.644 0v-.902c.114 0 .284 0 .398-.057.113 0 .227-.112.284-.225.113-.113.17-.282.227-.508.056-.226.113-.508.17-.902a9.61 9.61 0 00.114-1.467l.227-4.513h3.35v8.462h-1.079v-7.559h-1.363l-.17 3.61c-.057.564-.057 1.015-.114 1.467-.056.451-.113.789-.227 1.128a2.568 2.568 0 01-.397.789c-.17.226-.341.339-.625.452-.113.225-.397.225-.795.225zm9.824.057c-.51 0-.852-.113-1.136-.339-.283-.225-.454-.564-.567-.959-.114-.394-.17-.902-.17-1.466v-1.185h-.853v3.892h-.965v-8.461h.965v3.667h.852v-1.072c0-.564.057-1.072.17-1.467.114-.395.341-.733.569-.902.284-.226.681-.339 1.135-.339.455 0 .852.113 1.136.339.284.225.454.507.568.958.114.395.17.903.17 1.467v3.159c0 .564-.056 1.016-.17 1.467-.114.395-.34.733-.568.959-.284.169-.681.282-1.136.282zm0-.903c.284 0 .455-.056.625-.169.114-.113.227-.282.284-.564.057-.226.057-.508.057-.846v-3.723c0-.339 0-.564-.057-.79a1.09 1.09 0 00-.284-.508c-.114-.113-.34-.169-.625-.169-.284 0-.454.056-.624.169a1.09 1.09 0 00-.284.508c-.057.226-.057.508-.057.79v3.723c0 .338 0 .564.057.846.056.226.17.395.284.564.113.113.34.169.624.169zm2.953.846v-8.461h3.237v.846h-2.215v2.651h.228c.567 0 1.022.057 1.362.226.341.169.625.395.795.733.17.339.284.846.284 1.523 0 .452-.056.79-.113 1.129-.114.282-.227.564-.454.789-.17.226-.455.339-.739.452-.284.112-.624.112-1.079.112h-1.306zm1.022-.846h.284c.284 0 .568-.056.795-.113.227-.056.341-.225.455-.451.113-.226.17-.564.17-1.072 0-.564-.114-1.015-.284-1.241-.17-.225-.568-.338-1.079-.338h-.284v3.215h-.057zm5.509.903c-.511 0-.909-.113-1.25-.339-.284-.225-.51-.564-.681-.959-.114-.394-.17-.902-.17-1.466v-3.216c0-.564.056-1.015.227-1.41.113-.395.34-.733.681-.902.284-.226.682-.339 1.193-.339.51 0 .908.113 1.192.339.284.225.511.507.625.902.113.395.227.846.227 1.41v3.216c0 .564-.057 1.015-.227 1.466-.114.395-.34.734-.625.959-.284.226-.681.339-1.192.339zm0-.903c.284 0 .51-.056.624-.169.17-.113.228-.282.284-.564.057-.226.057-.508.057-.846v-3.723c0-.339 0-.564-.057-.79a1.09 1.09 0 00-.284-.508c-.17-.113-.34-.169-.624-.169s-.511.056-.625.169c-.17.113-.227.282-.284.508-.057.226-.057.508-.057.79v3.723c0 .338 0 .564.057.846.057.226.17.395.284.564.114.113.34.169.625.169zm3.123.846v-8.461h2.953v.902H97.05v2.821h1.533v.846H97.05v3.103h1.874v.846h-2.953v-.057zm5.906 0v-8.461h1.76c.341 0 .625.056.909.113.227.056.454.225.625.395.17.169.284.394.397.676.057.282.114.565.114.959 0 .339-.057.677-.114.903-.057.282-.17.451-.341.621-.17.169-.34.225-.624.282.284.056.568.225.738.394.17.17.341.395.398.734.113.282.113.62.113 1.015 0 .339-.057.677-.113 1.016a1.973 1.973 0 01-.341.789c-.171.226-.341.395-.625.508-.227.113-.511.169-.852.169h-2.044v-.113zm1.079-4.964h.625c.284 0 .511-.056.681-.113.17-.112.284-.225.341-.451.057-.225.113-.508.113-.79 0-.394-.056-.676-.17-.846a.827.827 0 00-.511-.338c-.227-.057-.511-.057-.852-.057h-.227v2.595zm0 4.118h.738c.454 0 .795-.113.966-.395.17-.225.227-.62.227-1.184a3.89 3.89 0 00-.114-.903c-.057-.225-.227-.395-.397-.564-.171-.113-.455-.169-.739-.169h-.624v3.215h-.057zm3.464.846l1.59-8.461h1.022l1.59 8.461H109.6l-.34-2.143h-1.534l-.34 2.143h-.966zm1.477-2.989h1.249l-.625-3.836-.624 3.836zm2.953 2.989l1.76-4.343-1.59-4.118h1.022l1.42 4.061h.057v-4.061h.908v4.061h.057l1.42-4.061h1.022l-1.59 4.118 1.76 4.343h-1.022l-1.59-4.23h-.057v4.23h-.908v-4.23h-.057l-1.59 4.23h-1.022zm6.871 0v-8.461h1.079v3.667h1.93v-3.667h1.079v8.461h-1.079v-3.948h-1.93v3.948h-1.079zm7.212.057c-.511 0-.909-.113-1.249-.339-.284-.225-.511-.564-.682-.959-.113-.394-.17-.902-.17-1.466v-3.216c0-.564.057-1.015.227-1.41.114-.395.341-.733.681-.902.284-.226.682-.339 1.193-.339s.909.113 1.192.339c.284.225.512.507.625.902.114.395.227.846.227 1.41v3.216c0 .564-.057 1.015-.227 1.466a1.893 1.893 0 01-.625.959c-.283.226-.681.339-1.192.339zm0-.903c.284 0 .511-.056.625-.169.17-.113.227-.282.284-.564.056-.226.056-.508.056-.846v-3.723c0-.339 0-.564-.056-.79a1.096 1.096 0 00-.284-.508c-.171-.113-.341-.169-.625-.169s-.511.056-.625.169c-.17.113-.227.282-.284.508-.056.226-.056.508-.056.79v3.723c0 .338 0 .564.056.846.057.226.171.395.284.564.114.113.341.169.625.169zm3.066.846v-8.461h2.953v.902h-1.874v2.821h1.534v.846h-1.534v3.103h1.874v.846h-2.953v-.057zm7.894.057c-.511 0-.966-.113-1.25-.395-.284-.226-.511-.564-.624-1.015a5.636 5.636 0 01-.171-1.411v-2.989c0-.565.057-1.072.171-1.467.113-.451.34-.733.624-.959.284-.226.739-.339 1.25-.339.454 0 .852.113 1.135.282.284.17.455.452.625.847.114.338.171.789.171 1.297v.677h-1.023v-.621c0-.338 0-.564-.056-.846a.859.859 0 00-.228-.564c-.113-.113-.34-.225-.624-.225s-.511.056-.682.225c-.113.169-.227.339-.284.621-.056.282-.056.564-.056.902v3.329c0 .451.056.733.113 1.015.057.282.171.395.284.508a.97.97 0 00.568.169c.284 0 .511-.057.625-.226.113-.169.227-.338.227-.564.057-.226.057-.564.057-.902V165h1.022v.621c0 .507-.057.958-.171 1.353-.113.395-.284.677-.568.903-.283.282-.681.395-1.135.395zm4.827 0c-.511 0-.909-.113-1.25-.339-.283-.225-.511-.564-.681-.959-.114-.394-.17-.902-.17-1.466v-3.216c0-.564.056-1.015.227-1.41.113-.395.341-.733.681-.902.284-.226.682-.339 1.193-.339s.908.113 1.192.339c.284.225.511.507.625.902.114.395.227.846.227 1.41v3.216c0 .564-.057 1.015-.227 1.466a1.899 1.899 0 01-.625.959c-.284.226-.681.339-1.192.339zm0-.903c.284 0 .511-.056.624-.169.171-.113.228-.282.284-.564.057-.226.057-.508.057-.846v-3.723c0-.339 0-.564-.057-.79a1.079 1.079 0 00-.284-.508c-.17-.113-.34-.169-.624-.169s-.511.056-.625.169c-.17.113-.227.282-.284.508-.057.226-.057.508-.057.79v3.723c0 .338 0 .564.057.846.057.226.171.395.284.564.114.113.341.169.625.169zm3.123.846v-8.461h3.237v.846h-2.215v2.651h.227c.568 0 1.023.057 1.363.226.341.169.625.395.795.733.171.339.284.846.284 1.523 0 .452-.057.79-.113 1.129-.114.282-.228.564-.455.789-.17.226-.454.339-.738.452-.284.112-.625.112-1.079.112h-1.306zm1.022-.846h.284c.284 0 .568-.056.795-.113.227-.056.341-.225.454-.451.114-.226.171-.564.171-1.072 0-.564-.114-1.015-.284-1.241-.17-.225-.568-.338-1.079-.338h-.284v3.215h-.057zm3.578.846v-8.461h1.079v3.497h.284c.568 0 1.022.057 1.363.226.34.169.624.395.795.733.17.339.284.846.284 1.523 0 .452-.057.79-.114 1.129-.114.282-.227.564-.454.789-.171.226-.455.339-.738.452-.284.112-.625.112-1.079.112h-1.42zm1.079-.846h.341c.34 0 .567-.056.795-.113.227-.056.34-.225.454-.451.113-.226.17-.564.17-1.072 0-.564-.113-1.015-.284-1.241-.227-.225-.568-.338-1.079-.338h-.34v3.215h-.057zm3.521.846v-8.461h1.079v8.461h-1.079zm3.066 0v-7.559h-1.306v-.902h3.578v.902h-1.249v7.559h-1.023zm3.01 0v-8.461h.908v5.867l2.215-5.867h.738v8.461h-.908v-5.923l-2.215 5.923h-.738zm5.111 0v-8.461h2.953v.902h-1.874v2.821h1.533v.846h-1.533v3.103h1.874v.846h-2.953v-.057z" fill="#000"/><path d="M167.978 140.969c-1.079.226-2.215.621-3.294.677-3.237.057-6.53 0-9.767 0-1.136 0-2.329.113-3.464.113-.625 0-1.193-.226-1.818-.338-.227-.057-.454-.113-.681-.113-1.704.056-3.521-.226-5.054.338-2.044.677-3.918.226-5.849.282-1.761.057-3.578.339-5.338.395-1.306.056-2.612-.056-3.919-.113-.17 0-.397-.056-.567-.056-3.862.169-7.724.451-11.528.564-2.045.056-4.089-.169-6.133-.226-.795 0-1.59.226-2.385.282-2.442.057-4.827 0-7.269.057-1.647 0-3.294.113-4.998.169h-6.19c-1.362 0-2.725.113-4.088.169-1.136.057-2.272.169-3.407.169-.455 0-.852-.169-1.306-.225-.228-.057-.455-.169-.682-.113a52.372 52.372 0 00-3.18.621c-.057 0-.17.056-.227.056-1.59-.903-3.294.282-4.998-.226-1.135-.338-2.498.226-3.804.282-.966.057-1.931-.056-2.897-.112-.51-.057-1.079-.226-1.59-.113-4.202.902-8.46.507-12.72.677-4.089.169-8.177.056-12.266.112-4.6.057-9.143.17-13.743.17-4.202 0-8.404-.113-12.607-.17-3.35-.056-6.757-.169-10.108-.282-.397 0-.795-.112-1.192-.394.454-.057.852-.17 1.306-.17 7.041-.056 14.083 0 21.125-.113 8.29-.169 16.582-.507 24.93-.733 4.202-.113 8.347-.113 12.55-.169 1.476 0 2.953-.169 4.43-.169 2.384.056 4.77.225 7.211.225 1.874 0 3.748-.169 5.622-.225 1.363-.057 2.783-.057 4.146-.113 1.249-.057 2.441-.113 3.69-.169.512 0 .966.056 1.477.056 1.931 0 3.919 0 5.85-.056 1.987-.057 3.975-.339 5.962-.395 3.18-.057 6.304 0 9.484-.057 1.703 0 3.407-.112 5.11-.169 1.704-.056 3.408-.113 5.168-.113.341 0 .738.226 1.079.226 1.42 0 2.84 0 4.259-.113.795-.056 1.647-.338 2.442-.338 4.43-.113 8.007-.17 12.323-.17 3.01-.056 6.019.113 8.972-.112 2.897-.226 5.736.112 8.632.282 3.578.225 7.212-.17 10.847-.282h.34a.424.424 0 01.114.225z" fill="#7A0000"/></svg><svg fill="none" viewBox="0 0 16 14" id="include--mail" xmlns="http://www.w3.org/2000/svg"><path d="M15 2.5c0-.825-.63-1.5-1.4-1.5H2.4C1.63 1 1 1.675 1 2.5m14 0v9c0 .825-.63 1.5-1.4 1.5H2.4c-.77 0-1.4-.675-1.4-1.5v-9m14 0L8 7.75 1 2.5" stroke="#7A0000" stroke-width="2" stroke-linecap="round" stroke-linejoin="round"/></svg><svg fill="none" viewBox="0 0 16 16" id="include--phone" xmlns="http://www.w3.org/2000/svg"><path d="M11.548 15.194h0c-1.12-.073-2.117-.49-2.848-.837h0a15.112 15.112 0 01-5.02-3.917v-.001c-1.15-1.38-1.931-2.677-2.451-4.077h0C.892 5.454.755 4.686.813 3.954v-.002h0c.053-.605.3-1.13.731-1.56h0l1.086-1.08.003-.002h0C2.977.98 3.385.8 3.818.8c.434 0 .837.18 1.169.51.178.163.355.343.524.515a130.936 130.936 0 00.216.218l.002.001.148.15.866.862s0 0 0 0c.357.354.55.768.55 1.196 0 .428-.193.842-.55 1.198l-.135.135-.001.002-.132.133c-.21.214-.43.436-.662.653.18.38.427.764.791 1.22.808.99 1.649 1.754 2.572 2.338.087.052.186.104.302.161l.044.022.109.055.926-.923c.34-.34.75-.528 1.188-.528.44 0 .848.192 1.18.535l1.742 1.736c.346.346.532.758.533 1.186.001.426-.18.843-.523 1.2l-.001.001-.145-.138a9.78 9.78 0 01-.41.405l-2.573 1.55zm0 0h.014c.063.003.129.006.198.006.771 0 1.424-.28 1.934-.83l-2.146.824zM4.6 6.174a.867.867 0 00.05.394l6.979 7.48s0 0 0 0c-.912-.06-1.764-.414-2.423-.726a13.852 13.852 0 01-4.641-3.618C3.493 8.42 2.78 7.231 2.31 5.964h0c-.29-.779-.391-1.367-.349-1.917.03-.334.156-.606.397-.844h0l1.08-1.075c.138-.132.27-.184.383-.184.106 0 .23.05.37.187h0l.004.003c.188.175.37.36.566.557l.003.004c.097.1.2.205.306.307l.864.862c.157.156.208.283.208.386 0 .103-.051.23-.208.386h0c-.091.091-.184.183-.274.276a174.4 174.4 0 00-.064.064 14.79 14.79 0 01-.724.7h0l-.008.009-.016.015.141.141-.14-.141a.805.805 0 00-.249.474zm.06.418l.001.006.003.006c.232.559.559 1.084 1.05 1.703h0l.001.002c.884 1.085 1.818 1.932 2.854 2.589h0c.135.085.275.156.403.22.116.058.217.11.303.162l.008.005.007.004.007.004.027.014c.121.06.247.094.38.094a.814.814 0 00.587-.264l1.084-1.08c.14-.14.27-.192.376-.192.13 0 .256.084.358.19l.002.001 1.75 1.744c.179.178.205.32.19.428-.017.12-.094.243-.203.356l-.001.002a8.631 8.631 0 01-.307.308l-.071.069c-.204.193-.42.403-.62.639l-8.19-7.01z" fill="#7A0000" stroke="#7A0000" stroke-width=".4"/></svg><svg fill="none" viewBox="0 0 18 15" id="include--tlg" xmlns="http://www.w3.org/2000/svg"><path d="M17 1L1 7.5l5.895.867M17 1l-2.105 13-8-5.633M17 1L6.895 8.367m0 0v4.766l2.736-2.84" stroke="#7A0000" stroke-width="1.8" stroke-linecap="round" stroke-linejoin="round"/></svg><svg fill="none" viewBox="0 0 17 17" id="include--whatsapp" xmlns="http://www.w3.org/2000/svg"><path d="M16 8.083a6.984 6.984 0 01-.75 3.167 7.083 7.083 0 01-6.333 3.917 6.984 6.984 0 01-3.167-.75L1 16l1.583-4.75a6.983 6.983 0 01-.75-3.167A7.083 7.083 0 015.75 1.75 6.983 6.983 0 018.917 1h.416A7.066 7.066 0 0116 7.667v.416z" stroke="#7A0000" stroke-width="2" stroke-linecap="round" stroke-linejoin="round"/></svg></svg>