<svg width="64" height="74" viewBox="0 0 64 74" fill="none" xmlns="http://www.w3.org/2000/svg">
<path d="M59.3581 0.775H59.3572L34.4765 0.775L34.4764 0.775C33.5682 0.77567 32.6919 1.09699 32 1.67853C31.3081 1.09699 30.4318 0.77567 29.5236 0.775H29.5235L4.64282 0.774998L4.64194 0.775002C3.61495 0.779045 2.63141 1.18989 1.90666 1.91759C1.18191 2.64528 0.774992 3.63052 0.775 4.6576V69.3424C0.774992 70.3695 1.18191 71.3547 1.90666 72.0824C2.63141 72.8101 3.61495 73.221 4.64194 73.225H4.64282H29.5235H29.5236C30.4318 73.2243 31.3081 72.903 32 72.3215C32.6919 72.903 33.5682 73.2243 34.4764 73.225H34.4765H59.3572H59.3581C60.385 73.221 61.3686 72.8101 62.0933 72.0824C62.8181 71.3547 63.225 70.3695 63.225 69.3424V4.6576C63.225 3.63052 62.8181 2.64528 62.0933 1.91759C61.3686 1.18989 60.385 0.779045 59.3581 0.775ZM60.3992 69.3422V69.3424C60.3992 69.4868 60.3708 69.6299 60.3155 69.7633C60.2603 69.8967 60.1793 70.018 60.0772 70.1201C59.975 70.2222 59.8538 70.3032 59.7204 70.3585C59.587 70.4138 59.444 70.4422 59.2996 70.4422H34.4765C34.3321 70.4422 34.1892 70.4138 34.0557 70.3585C33.9223 70.3032 33.8011 70.2222 33.699 70.1201C33.5969 70.018 33.5159 69.8967 33.4606 69.7633C33.4053 69.6299 33.3769 69.4868 33.3769 69.3424V68.2426H34.4765C34.8455 68.2426 35.1994 68.096 35.4603 67.8351C35.7212 67.5741 35.8678 67.2202 35.8678 66.8512C35.8678 66.4822 35.7212 66.1283 35.4603 65.8673C35.1994 65.6064 34.8455 65.4598 34.4765 65.4598H33.3769V8.5402H34.4765C34.8455 8.5402 35.1994 8.3936 35.4603 8.13266C35.7212 7.87172 35.8678 7.51782 35.8678 7.1488C35.8678 6.77979 35.7212 6.42588 35.4603 6.16494C35.1994 5.904 34.8455 5.7574 34.4765 5.7574H33.3769V4.6576C33.3769 4.36591 33.4927 4.08617 33.699 3.87991C33.9052 3.67367 34.1849 3.5578 34.4765 3.5578H59.3572C59.6488 3.5578 59.9285 3.67367 60.1348 3.87992C60.3409 4.08612 60.4568 4.36577 60.4568 4.6574C60.4568 4.65746 60.4568 4.65754 60.4568 4.6576L60.3992 69.3422ZM30.2866 70.1201L30.4457 70.2792L30.2866 70.1201C30.1845 70.2222 30.0633 70.3032 29.9299 70.3585C29.7965 70.4138 29.6535 70.4422 29.5091 70.4422H4.64282C4.49842 70.4422 4.35543 70.4138 4.222 70.3585C4.08859 70.3032 3.96737 70.2222 3.86526 70.1201L3.70615 70.2792L3.86525 70.1201C3.76314 70.018 3.68214 69.8967 3.62687 69.7633C3.57161 69.6299 3.54316 69.4868 3.54316 69.3424V4.6576C3.54316 4.36591 3.65902 4.08617 3.86525 3.87992C4.07148 3.67367 4.35118 3.5578 4.64282 3.5578H29.5235C29.6679 3.5578 29.8109 3.58625 29.9443 3.64151C30.0777 3.69678 30.1989 3.77779 30.301 3.87992C30.4031 3.98204 30.4841 4.10328 30.5394 4.23672C30.5945 4.36979 30.623 4.5124 30.6231 4.65644C30.6231 4.65683 30.6231 4.65721 30.6231 4.6576L30.6112 5.7574H29.5091C29.1401 5.7574 28.7862 5.904 28.5253 6.16494C28.2644 6.42588 28.1178 6.77979 28.1178 7.1488C28.1178 7.51782 28.2644 7.87172 28.5253 8.13266C28.7862 8.3936 29.1401 8.5402 29.5091 8.5402H30.6087V65.4598H29.5091C29.1401 65.4598 28.7862 65.6064 28.5253 65.8673C28.2644 66.1283 28.1178 66.4822 28.1178 66.8512C28.1178 67.2202 28.2644 67.5741 28.5253 67.8351C28.7862 68.096 29.1401 68.2426 29.5091 68.2426H30.6087V69.3424C30.6087 69.4868 30.5803 69.6299 30.525 69.7633C30.4697 69.8967 30.3887 70.018 30.2866 70.1201Z" fill="white" stroke="white" stroke-width="0.45"/>
<path d="M25.9914 21.9976L25.9911 21.9951C25.9487 21.6587 25.784 21.3495 25.5283 21.1251C25.2727 20.9008 24.9436 20.7766 24.6027 20.775H24.6017L9.51491 20.775L9.51387 20.775C9.17298 20.7766 8.84394 20.9008 8.58833 21.1251C8.33265 21.3495 8.16788 21.6587 8.12555 21.9951L8.12555 21.9952L6.85747 32.0825C6.85745 32.0826 6.85744 32.0828 6.85742 32.0829C6.68633 33.4112 6.7822 34.7598 7.13951 36.0513C7.49685 37.343 8.10861 38.552 8.93956 39.6091C9.77051 40.6661 10.8043 41.5504 11.9815 42.2112C13.1007 42.8396 14.3288 43.2542 15.6016 43.4343V51.3219C15.6016 52.1481 15.2696 52.941 14.6779 53.5261C14.0861 54.1112 13.2829 54.4403 12.4448 54.4403C12.0728 54.4403 11.7156 54.5864 11.4517 54.8472C11.1878 55.1081 11.0391 55.4626 11.0391 55.8327C11.0391 56.2028 11.1878 56.5572 11.4517 56.8181C11.7156 57.0789 12.0728 57.225 12.4448 57.225H21.5552C21.9272 57.225 22.2844 57.0789 22.5483 56.8181C22.8122 56.5572 22.9609 56.2028 22.9609 55.8327C22.9609 55.4626 22.8122 55.1081 22.5483 54.8472C22.2844 54.5864 21.9272 54.4403 21.5552 54.4403C20.7171 54.4403 19.9139 54.1112 19.3221 53.5261C18.7304 52.941 18.3984 52.1481 18.3984 51.3219V43.3911C19.6712 43.211 20.8993 42.7963 22.0185 42.168C23.1957 41.5071 24.2295 40.6229 25.0604 39.5658C25.8914 38.5088 26.5032 37.2998 26.8605 36.0081C27.2177 34.717 27.3136 33.3687 27.1427 32.0408C27.1427 32.0403 27.1426 32.0398 27.1425 32.0393L25.9914 21.9976ZM12.6738 39.3248C11.4925 38.4933 10.5844 37.341 10.0571 36.0112H23.9885C23.6762 36.812 23.225 37.5538 22.6544 38.2029L22.6619 38.2127C21.959 38.9944 21.0959 39.6199 20.1296 40.0474C19.1529 40.4796 18.0936 40.6993 17.0235 40.6917L17.0212 40.6917C15.463 40.6962 13.9427 40.218 12.6738 39.3248ZM24.4235 32.3934C24.4697 32.6693 24.5 32.9474 24.5143 33.2266H9.58147C9.5691 32.9439 9.573 32.6607 9.59314 32.3784L10.7045 23.5597H23.31L24.4222 32.3844L24.422 32.3844L24.4235 32.3934Z" fill="white" stroke="white" stroke-width="0.45"/>
<path d="M39.6978 9.775H39.6829L39.668 9.77699C38.5918 9.9209 37.6043 10.4247 36.8881 11.1994C36.1716 11.9745 35.775 12.9688 35.775 14C35.775 15.0312 36.1716 16.0255 36.8881 16.8006C37.6043 17.5753 38.5918 18.0791 39.668 18.223L39.6829 18.225H39.6978H53.3022H53.3171L53.332 18.223C54.4082 18.0791 55.3957 17.5753 56.1119 16.8006C56.8284 16.0255 57.225 15.0312 57.225 14C57.225 12.9688 56.8284 11.9745 56.1119 11.1994C55.3957 10.4247 54.4082 9.9209 53.332 9.77699L53.3165 9.8927V9.775H53.3022H39.6978ZM53.3022 15.5932H39.6978C39.2393 15.5932 38.8021 15.4221 38.4819 15.1216C38.1622 14.8215 37.9855 14.4178 37.9855 14C37.9855 13.5822 38.1622 13.1785 38.4819 12.8784C38.8021 12.5779 39.2393 12.4068 39.6978 12.4068H53.3022C53.7607 12.4068 54.1979 12.5779 54.5181 12.8784C54.8378 13.1785 55.0145 13.5822 55.0145 14C55.0145 14.4178 54.8378 14.8215 54.5181 15.1216C54.1979 15.4221 53.7607 15.5932 53.3022 15.5932Z" fill="white" stroke="white" stroke-width="0.45"/>
<path d="M54.782 23.225C55.1519 23.225 55.5135 23.1047 55.786 22.881C56.0598 22.6563 56.225 22.3408 56.225 22C56.225 21.6592 56.0598 21.3437 55.786 21.119C55.5135 20.8953 55.1519 20.775 54.782 20.775H39.218C38.8481 20.775 38.4865 20.8953 38.214 21.119C37.9402 21.3437 37.775 21.6592 37.775 22C37.775 22.3408 37.9402 22.6563 38.214 22.881C38.4865 23.1047 38.8481 23.225 39.218 23.225H54.782Z" fill="white" stroke="white" stroke-width="0.45"/>
<path d="M35.775 33C35.775 33.3383 35.9343 33.6533 36.2014 33.879C36.4673 34.1037 36.8209 34.225 37.1833 34.225H54.8167C55.1791 34.225 55.5327 34.1037 55.7986 33.879C56.0657 33.6533 56.225 33.3383 56.225 33C56.225 32.6617 56.0657 32.3467 55.7986 32.121C55.5327 31.8963 55.1791 31.775 54.8167 31.775H37.1833C36.8209 31.775 36.4673 31.8963 36.2014 32.121C35.9343 32.3467 35.775 32.6617 35.775 33Z" fill="white" stroke="white" stroke-width="0.45"/>
<path d="M37.1865 39.225H49.8135C50.1766 39.225 50.531 39.1038 50.7975 38.8792C51.0651 38.6536 51.225 38.3385 51.225 38C51.225 37.6615 51.0651 37.3464 50.7975 37.1208C50.531 36.8962 50.1766 36.775 49.8135 36.775H37.1865C36.8234 36.775 36.469 36.8962 36.2025 37.1208C35.9349 37.3464 35.775 37.6615 35.775 38C35.775 38.3385 35.9349 38.6536 36.2025 38.8792C36.469 39.1038 36.8234 39.225 37.1865 39.225Z" fill="white" stroke="white" stroke-width="0.45"/>
<path d="M56.7874 36.775H54.2126C53.8438 36.775 53.4835 36.8954 53.212 37.1193C52.9393 37.3442 52.775 37.6596 52.775 38C52.775 38.3404 52.9393 38.6558 53.212 38.8807C53.4835 39.1046 53.8438 39.225 54.2126 39.225H56.7874C57.1562 39.225 57.5165 39.1046 57.788 38.8807C58.0607 38.6558 58.225 38.3404 58.225 38C58.225 37.6596 58.0607 37.3442 57.788 37.1193C57.5165 36.8954 57.1562 36.775 56.7874 36.775Z" fill="white" stroke="white" stroke-width="0.45"/>
<path d="M37.1833 44.225H54.8167C55.1791 44.225 55.5327 44.1037 55.7986 43.879C56.0657 43.6533 56.225 43.3383 56.225 43C56.225 42.6617 56.0657 42.3467 55.7986 42.121C55.5327 41.8963 55.1791 41.775 54.8167 41.775H37.1833C36.8209 41.775 36.4673 41.8963 36.2014 42.121C35.9343 42.3467 35.775 42.6617 35.775 43C35.775 43.3383 35.9343 43.6533 36.2014 43.879C36.4673 44.1037 36.8209 44.225 37.1833 44.225Z" fill="white" stroke="white" stroke-width="0.45"/>
<path d="M37.1865 49.225H49.8135C50.1766 49.225 50.531 49.1038 50.7975 48.8792C51.0651 48.6536 51.225 48.3385 51.225 48C51.225 47.6615 51.0651 47.3464 50.7975 47.1208C50.531 46.8962 50.1766 46.775 49.8135 46.775H37.1865C36.8234 46.775 36.469 46.8962 36.2025 47.1208C35.9349 47.3464 35.775 47.6615 35.775 48C35.775 48.3385 35.9349 48.6536 36.2025 48.8792C36.469 49.1038 36.8234 49.225 37.1865 49.225Z" fill="white" stroke="white" stroke-width="0.45"/>
<path d="M56.7874 46.775H54.2126C53.8438 46.775 53.4835 46.8954 53.212 47.1193C52.9393 47.3442 52.775 47.6596 52.775 48C52.775 48.3404 52.9393 48.6558 53.212 48.8807C53.4835 49.1046 53.8438 49.225 54.2126 49.225H56.7874C57.1562 49.225 57.5165 49.1046 57.788 48.8807C58.0607 48.6558 58.225 48.3404 58.225 48C58.225 47.6596 58.0607 47.3442 57.788 47.1193L57.6448 47.2929L57.788 47.1193C57.5165 46.8954 57.1562 46.775 56.7874 46.775Z" fill="white" stroke="white" stroke-width="0.45"/>
<path d="M37.1833 54.225H54.8167C55.1791 54.225 55.5327 54.1037 55.7986 53.879C56.0657 53.6533 56.225 53.3383 56.225 53C56.225 52.6617 56.0657 52.3467 55.7986 52.121C55.5327 51.8963 55.1791 51.775 54.8167 51.775H37.1833C36.8209 51.775 36.4673 51.8963 36.2014 52.121C35.9343 52.3467 35.775 52.6617 35.775 53C35.775 53.3383 35.9343 53.6533 36.2014 53.879C36.4673 54.1037 36.8209 54.225 37.1833 54.225Z" fill="white" stroke="white" stroke-width="0.45"/>
<path d="M49.8135 56.775H37.1865C36.8234 56.775 36.469 56.8962 36.2025 57.1208C35.9349 57.3464 35.775 57.6615 35.775 58C35.775 58.3385 35.9349 58.6536 36.2025 58.8792C36.469 59.1038 36.8234 59.225 37.1865 59.225H49.8135C50.1766 59.225 50.531 59.1038 50.7975 58.8792C51.0651 58.6536 51.225 58.3385 51.225 58C51.225 57.6615 51.0651 57.3464 50.7975 57.1208C50.531 56.8962 50.1766 56.775 49.8135 56.775Z" fill="white" stroke="white" stroke-width="0.45"/>
<path d="M56.7874 56.775H54.2126C53.8438 56.775 53.4835 56.8954 53.212 57.1193C52.9393 57.3442 52.775 57.6596 52.775 58C52.775 58.3404 52.9393 58.6558 53.212 58.8807C53.4835 59.1046 53.8438 59.225 54.2126 59.225H56.7874C57.1562 59.225 57.5165 59.1046 57.788 58.8807C58.0607 58.6558 58.225 58.3404 58.225 58C58.225 57.6596 58.0607 57.3442 57.788 57.1193L57.6448 57.2929L57.788 57.1193C57.5165 56.8954 57.1562 56.775 56.7874 56.775Z" fill="white" stroke="white" stroke-width="0.45"/>
</svg>
