<svg width="84" height="73" viewBox="0 0 84 73" fill="none" xmlns="http://www.w3.org/2000/svg">
<path d="M81.5466 60.761H75.5995C75.4787 57.7833 74.9646 54.8345 74.0707 51.9915C74.0155 51.8161 73.9264 51.6533 73.8083 51.5124C73.6902 51.3714 73.5455 51.2551 73.3825 51.1701C73.0533 50.9984 72.6693 50.9645 72.3151 51.0759C71.9609 51.1873 71.6654 51.4348 71.4937 51.7641C71.322 52.0933 71.2881 52.4773 71.3995 52.8315C72.2069 55.4029 72.6756 58.0685 72.7939 60.761H70.5595V46.7331C78.1026 45.8764 83.9994 38.2156 83.9994 28.9253C84.0273 25.3005 83.0878 21.734 81.2778 18.5934C81.1542 18.3826 80.9774 18.2081 80.7651 18.0872C80.5528 17.9663 80.3125 17.9034 80.0682 17.9046H58.2284C57.9841 17.9034 57.7438 17.9663 57.5315 18.0872C57.3192 18.2081 57.1424 18.3826 57.0188 18.5934C55.1952 21.8102 54.2564 25.4527 54.2977 29.1502C54.339 32.8477 55.359 36.4683 57.254 39.6436C57.4478 39.9599 57.7594 40.1863 58.1201 40.273C58.4808 40.3596 58.8612 40.2994 59.1776 40.1056C59.4939 39.9118 59.7203 39.6002 59.807 39.2395C59.8936 38.8787 59.8334 38.4984 59.6396 38.182C57.9553 35.3969 57.0825 32.1967 57.1196 28.9421C57.1196 28.6733 57.1196 28.4045 57.1196 28.1357H81.177C81.177 28.4045 81.177 28.6733 81.177 28.9421C81.177 37.342 75.7675 44.062 69.1315 44.062C66.5812 44.037 64.1294 43.0742 62.2435 41.3572C61.9622 41.1137 61.596 40.9912 61.2247 41.0164C60.8534 41.0415 60.5071 41.2123 60.2612 41.4916C60.044 41.7775 59.9455 42.1362 59.9861 42.493C60.0268 42.8498 60.2036 43.1771 60.4796 43.4068C62.5157 45.2561 65.0744 46.4298 67.8043 46.7668V60.7946H10.0799C10.3255 55.0445 12.1698 49.4768 15.4055 44.7172C15.6152 44.4231 15.7026 44.0591 15.6493 43.7019C15.5961 43.3447 15.4063 43.0221 15.1199 42.802C14.8118 42.5948 14.4344 42.5175 14.0696 42.5866C13.7048 42.6558 13.382 42.866 13.1711 43.1716C9.62033 48.3914 7.60633 54.5033 7.35835 60.8115H1.39439C1.02457 60.8115 0.669906 60.9584 0.408407 61.2199C0.146908 61.4814 0 61.836 0 62.2058V64.6418C0.00220373 65.628 0.198626 66.6041 0.578053 67.5143C0.957481 68.4246 1.51248 69.2512 2.21137 69.947C2.91025 70.6427 3.73934 71.194 4.65129 71.5694C5.56323 71.9447 6.54018 72.1368 7.52635 72.1346H23.5198C23.8896 72.1346 24.2443 71.9877 24.5058 71.7262C24.7673 71.4647 24.9142 71.11 24.9142 70.7402C24.9142 70.3704 24.7673 70.0157 24.5058 69.7542C24.2443 69.4927 23.8896 69.3458 23.5198 69.3458H7.52635C6.27723 69.3458 5.07902 68.8507 4.19419 67.969C3.30935 67.0874 2.81003 65.8909 2.80558 64.6418V63.4826H67.7371V65.1626H66.3427C65.1032 65.1626 63.8986 65.5731 62.9169 66.3298C61.9353 67.0866 61.2318 68.1471 60.9164 69.3458H28.8622C28.4924 69.3458 28.1377 69.4927 27.8762 69.7542C27.6147 70.0157 27.4678 70.3704 27.4678 70.7402C27.4678 71.11 27.6147 71.4647 27.8762 71.7262C28.1377 71.9877 28.4924 72.1346 28.8622 72.1346H76.1539C76.338 72.1368 76.5207 72.1025 76.6915 72.0338C78.4407 71.7401 80.0295 70.8368 81.1765 69.4838C82.3235 68.1308 82.9545 66.4155 82.9578 64.6418V62.1554C82.9578 61.9709 82.9212 61.7882 82.8501 61.6179C82.779 61.4476 82.6747 61.2932 82.5435 61.1635C82.4122 61.0338 82.2565 60.9314 82.0854 60.8623C81.9143 60.7933 81.7311 60.7588 81.5466 60.761ZM57.4388 25.3469C57.7714 23.7281 58.3373 22.1662 59.1188 20.7101H79.2786C80.0599 22.1663 80.6258 23.7282 80.9586 25.3469H57.4388ZM63.8395 69.413C64.0908 68.9739 64.4561 68.611 64.8968 68.3626C65.3374 68.1142 65.837 67.9895 66.3427 68.0018H71.9539C72.4438 68.0028 72.9248 68.132 73.3493 68.3767C73.7737 68.6213 74.1267 68.9728 74.3731 69.3962L63.8395 69.413ZM80.1522 64.6418C80.1658 65.5781 79.8997 66.4971 79.388 67.2813C78.8762 68.0654 78.142 68.679 77.2794 69.0434C76.9039 67.9328 76.1899 66.9678 75.2377 66.2838C74.2855 65.5998 73.1431 65.2312 71.9707 65.2298H70.5595V63.5498H80.169V64.6418H80.1522Z" fill="white"/>
<path d="M50.8532 29.3619C49.4082 28.9521 47.9378 28.6378 46.4516 28.4212C47.3132 27.324 47.7806 25.969 47.7788 24.574C47.7788 22.9009 47.1142 21.2963 45.9311 20.1133C44.7481 18.9303 43.1435 18.2656 41.4704 18.2656C39.7974 18.2656 38.1928 18.9303 37.0098 20.1133C35.8267 21.2963 35.1621 22.9009 35.1621 24.574C35.1603 25.969 35.6277 27.324 36.4893 28.4212C29.2163 29.4881 22.4849 32.8833 17.3038 38.0979C17.0432 38.3608 16.8976 38.7164 16.8992 39.0866C16.9008 39.4568 17.0493 39.8112 17.3122 40.0719C17.5751 40.3325 17.9307 40.4781 18.3009 40.4765C18.6711 40.4749 19.0255 40.3263 19.2862 40.0635C22.1996 37.1503 25.6601 34.8418 29.4687 33.2705C33.2773 31.6992 37.3589 30.8962 41.4788 30.9075C44.3929 30.9056 47.2932 31.3071 50.0972 32.1003C50.2737 32.1511 50.4584 32.1665 50.6409 32.1459C50.8234 32.1252 51 32.0688 51.1607 31.9799C51.3214 31.891 51.463 31.7713 51.5774 31.6276C51.6918 31.484 51.7768 31.3192 51.8276 31.1427C51.8783 30.9662 51.8938 30.7815 51.8731 30.599C51.8525 30.4165 51.7961 30.2399 51.7071 30.0792C51.6182 29.9185 51.4985 29.7769 51.3549 29.6625C51.2112 29.5481 51.0465 29.4631 50.87 29.4123L50.8532 29.3619ZM41.4788 28.0684C40.7884 28.065 40.1145 27.8573 39.5421 27.4713C38.9696 27.0853 38.5244 26.5384 38.2625 25.8996C38.0005 25.2608 37.9337 24.5588 38.0705 23.882C38.2072 23.2053 38.5413 22.5842 39.0307 22.0972C39.52 21.6102 40.1427 21.279 40.8201 21.1456C41.4974 21.0121 42.1992 21.0823 42.8367 21.3472C43.4743 21.6122 44.019 22.0601 44.4022 22.6344C44.7855 23.2086 44.99 23.8836 44.99 24.574C44.999 25.0399 44.9147 25.5029 44.742 25.9358C44.5694 26.3686 44.3119 26.7626 43.9847 27.0944C43.6576 27.4263 43.2673 27.6894 42.837 27.8682C42.4066 28.047 41.9448 28.1379 41.4788 28.1356V28.0684Z" fill="white"/>
<path d="M25.3005 28.4044L18.7989 1.03742C18.717 0.73932 18.5395 0.476356 18.2937 0.288934C18.0479 0.101512 17.7473 0 17.4381 0C17.129 0 16.8284 0.101512 16.5826 0.288934C16.3367 0.476356 16.1592 0.73932 16.0773 1.03742L3.07424 55.7546C3.03186 55.9333 3.02521 56.1187 3.05468 56.3C3.08414 56.4813 3.14913 56.655 3.24591 56.8111C3.3427 56.9672 3.46938 57.1026 3.61866 57.2096C3.76795 57.3166 3.93691 57.3931 4.11583 57.4346H4.43503C4.74993 57.4354 5.05583 57.3295 5.30292 57.1343C5.55 56.9391 5.72373 56.666 5.79582 56.3594L11.7598 31.3276C15.2955 29.6585 18.6085 27.5533 21.6213 25.0612L22.5621 29.0596C22.6468 29.4205 22.8713 29.733 23.1864 29.9283C23.5014 30.1237 23.8812 30.1859 24.2421 30.1012C24.603 30.0166 24.9155 29.792 25.1108 29.4769C25.3062 29.1619 25.3683 28.7821 25.2837 28.4212L25.3005 28.4044ZM12.5998 27.682L17.4213 7.33737L20.8821 21.8861C18.3728 24.1545 15.5906 26.1015 12.5998 27.682Z" fill="white"/>
<path d="M81.5466 60.761H75.5995C75.4787 57.7833 74.9646 54.8345 74.0707 51.9915C74.0155 51.8161 73.9264 51.6533 73.8083 51.5124C73.6902 51.3714 73.5455 51.2551 73.3825 51.1701C73.0533 50.9984 72.6693 50.9645 72.3151 51.0759C71.9609 51.1873 71.6654 51.4348 71.4937 51.7641C71.322 52.0933 71.2881 52.4773 71.3995 52.8315C72.2069 55.4029 72.6756 58.0685 72.7939 60.761H70.5595V46.7331C78.1026 45.8764 83.9994 38.2156 83.9994 28.9253C84.0273 25.3005 83.0878 21.734 81.2778 18.5934C81.1542 18.3826 80.9774 18.2081 80.7651 18.0872C80.5528 17.9663 80.3125 17.9034 80.0682 17.9046H58.2284C57.9841 17.9034 57.7438 17.9663 57.5315 18.0872C57.3192 18.2081 57.1424 18.3826 57.0188 18.5934C55.1952 21.8102 54.2564 25.4527 54.2977 29.1502C54.339 32.8477 55.359 36.4683 57.254 39.6436C57.4478 39.9599 57.7594 40.1863 58.1201 40.273C58.4808 40.3596 58.8612 40.2994 59.1776 40.1056C59.4939 39.9118 59.7203 39.6002 59.807 39.2395C59.8936 38.8787 59.8334 38.4984 59.6396 38.182C57.9553 35.3969 57.0825 32.1967 57.1196 28.9421C57.1196 28.6733 57.1196 28.4045 57.1196 28.1357H81.177C81.177 28.4045 81.177 28.6733 81.177 28.9421C81.177 37.342 75.7675 44.062 69.1315 44.062C66.5812 44.037 64.1294 43.0742 62.2435 41.3572C61.9622 41.1137 61.596 40.9912 61.2247 41.0164C60.8534 41.0415 60.5071 41.2123 60.2612 41.4916C60.044 41.7775 59.9455 42.1362 59.9861 42.493C60.0268 42.8498 60.2036 43.1771 60.4796 43.4068C62.5157 45.2561 65.0744 46.4298 67.8043 46.7668V60.7946H10.0799C10.3255 55.0445 12.1698 49.4768 15.4055 44.7172C15.6152 44.4231 15.7026 44.0591 15.6493 43.7019C15.5961 43.3447 15.4063 43.0221 15.1199 42.802C14.8118 42.5948 14.4344 42.5175 14.0696 42.5866C13.7048 42.6558 13.382 42.866 13.1711 43.1716C9.62033 48.3914 7.60633 54.5033 7.35835 60.8115H1.39439C1.02457 60.8115 0.669906 60.9584 0.408407 61.2199C0.146908 61.4814 0 61.836 0 62.2058V64.6418C0.00220373 65.628 0.198626 66.6041 0.578053 67.5143C0.957481 68.4246 1.51248 69.2512 2.21137 69.947C2.91025 70.6427 3.73934 71.194 4.65129 71.5694C5.56323 71.9447 6.54018 72.1368 7.52635 72.1346H23.5198C23.8896 72.1346 24.2443 71.9877 24.5058 71.7262C24.7673 71.4647 24.9142 71.11 24.9142 70.7402C24.9142 70.3704 24.7673 70.0157 24.5058 69.7542C24.2443 69.4927 23.8896 69.3458 23.5198 69.3458H7.52635C6.27723 69.3458 5.07902 68.8507 4.19419 67.969C3.30935 67.0874 2.81003 65.8909 2.80558 64.6418V63.4826H67.7371V65.1626H66.3427C65.1032 65.1626 63.8986 65.5731 62.9169 66.3298C61.9353 67.0866 61.2318 68.1471 60.9164 69.3458H28.8622C28.4924 69.3458 28.1377 69.4927 27.8762 69.7542C27.6147 70.0157 27.4678 70.3704 27.4678 70.7402C27.4678 71.11 27.6147 71.4647 27.8762 71.7262C28.1377 71.9877 28.4924 72.1346 28.8622 72.1346H76.1539C76.338 72.1368 76.5207 72.1025 76.6915 72.0338C78.4407 71.7401 80.0295 70.8368 81.1765 69.4838C82.3235 68.1308 82.9545 66.4155 82.9578 64.6418V62.1554C82.9578 61.9709 82.9212 61.7882 82.8501 61.6179C82.779 61.4476 82.6747 61.2932 82.5435 61.1635C82.4122 61.0338 82.2565 60.9314 82.0854 60.8623C81.9143 60.7933 81.7311 60.7588 81.5466 60.761ZM57.4388 25.3469C57.7714 23.7281 58.3373 22.1662 59.1188 20.7101H79.2786C80.0599 22.1663 80.6258 23.7282 80.9586 25.3469H57.4388ZM63.8395 69.413C64.0908 68.9739 64.4561 68.611 64.8968 68.3626C65.3374 68.1142 65.837 67.9895 66.3427 68.0018H71.9539C72.4438 68.0028 72.9248 68.132 73.3493 68.3767C73.7737 68.6213 74.1267 68.9728 74.3731 69.3962L63.8395 69.413ZM80.1522 64.6418C80.1658 65.5781 79.8997 66.4971 79.388 67.2813C78.8762 68.0654 78.142 68.679 77.2794 69.0434C76.9039 67.9328 76.1899 66.9678 75.2377 66.2838C74.2855 65.5998 73.1431 65.2312 71.9707 65.2298H70.5595V63.5498H80.169V64.6418H80.1522Z" fill="white"/>
<path d="M50.8532 29.3619C49.4082 28.9521 47.9378 28.6378 46.4516 28.4212C47.3132 27.324 47.7806 25.969 47.7788 24.574C47.7788 22.9009 47.1142 21.2963 45.9311 20.1133C44.7481 18.9303 43.1435 18.2656 41.4704 18.2656C39.7974 18.2656 38.1928 18.9303 37.0098 20.1133C35.8267 21.2963 35.1621 22.9009 35.1621 24.574C35.1603 25.969 35.6277 27.324 36.4893 28.4212C29.2163 29.4881 22.4849 32.8833 17.3038 38.0979C17.0432 38.3608 16.8976 38.7164 16.8992 39.0866C16.9008 39.4568 17.0493 39.8112 17.3122 40.0719C17.5751 40.3325 17.9307 40.4781 18.3009 40.4765C18.6711 40.4749 19.0255 40.3263 19.2862 40.0635C22.1996 37.1503 25.6601 34.8418 29.4687 33.2705C33.2773 31.6992 37.3589 30.8962 41.4788 30.9075C44.3929 30.9056 47.2932 31.3071 50.0972 32.1003C50.2737 32.1511 50.4584 32.1665 50.6409 32.1459C50.8234 32.1252 51 32.0688 51.1607 31.9799C51.3214 31.891 51.463 31.7713 51.5774 31.6276C51.6918 31.484 51.7768 31.3192 51.8276 31.1427C51.8783 30.9662 51.8938 30.7815 51.8731 30.599C51.8525 30.4165 51.7961 30.2399 51.7071 30.0792C51.6182 29.9185 51.4985 29.7769 51.3549 29.6625C51.2112 29.5481 51.0465 29.4631 50.87 29.4123L50.8532 29.3619ZM41.4788 28.0684C40.7884 28.065 40.1145 27.8573 39.5421 27.4713C38.9696 27.0853 38.5244 26.5384 38.2625 25.8996C38.0005 25.2608 37.9337 24.5588 38.0705 23.882C38.2072 23.2053 38.5413 22.5842 39.0307 22.0972C39.52 21.6102 40.1427 21.279 40.8201 21.1456C41.4974 21.0121 42.1992 21.0823 42.8367 21.3472C43.4743 21.6122 44.019 22.0601 44.4022 22.6344C44.7855 23.2086 44.99 23.8836 44.99 24.574C44.999 25.0399 44.9147 25.5029 44.742 25.9358C44.5694 26.3686 44.3119 26.7626 43.9847 27.0944C43.6576 27.4263 43.2673 27.6894 42.837 27.8682C42.4066 28.047 41.9448 28.1379 41.4788 28.1356V28.0684Z" fill="white"/>
<path d="M25.3005 28.4044L18.7989 1.03742C18.717 0.73932 18.5395 0.476356 18.2937 0.288934C18.0479 0.101512 17.7473 0 17.4381 0C17.129 0 16.8284 0.101512 16.5826 0.288934C16.3367 0.476356 16.1592 0.73932 16.0773 1.03742L3.07424 55.7546C3.03186 55.9333 3.02521 56.1187 3.05468 56.3C3.08414 56.4813 3.14913 56.655 3.24591 56.8111C3.3427 56.9672 3.46938 57.1026 3.61866 57.2096C3.76795 57.3166 3.93691 57.3931 4.11583 57.4346H4.43503C4.74993 57.4354 5.05583 57.3295 5.30292 57.1343C5.55 56.9391 5.72373 56.666 5.79582 56.3594L11.7598 31.3276C15.2955 29.6585 18.6085 27.5533 21.6213 25.0612L22.5621 29.0596C22.6468 29.4205 22.8713 29.733 23.1864 29.9283C23.5014 30.1237 23.8812 30.1859 24.2421 30.1012C24.603 30.0166 24.9155 29.792 25.1108 29.4769C25.3062 29.1619 25.3683 28.7821 25.2837 28.4212L25.3005 28.4044ZM12.5998 27.682L17.4213 7.33737L20.8821 21.8861C18.3728 24.1545 15.5906 26.1015 12.5998 27.682Z" fill="white"/>
</svg>
