<svg width="74" height="74" viewBox="0 0 74 74" fill="none" xmlns="http://www.w3.org/2000/svg">
<path d="M24.1406 35.0778V35.0781V53.4632C24.1406 53.6322 24.1742 53.7995 24.2393 53.9555C24.3045 54.1114 24.4 54.2529 24.5202 54.3717C24.6405 54.4904 24.7831 54.5842 24.9399 54.6474C25.0963 54.7105 25.2637 54.7419 25.4324 54.7399H47.3776V67.2262C47.3701 68.1107 47.0126 68.9563 46.3832 69.5778C45.7538 70.1995 44.9037 70.5464 44.019 70.5427H44.0185H30.0821H30.0815C29.1969 70.5464 28.3467 70.1995 27.7173 69.5778C27.0879 68.9563 26.7304 68.1108 26.723 67.2263V58.0559H26.7237L26.7222 58.042C26.6869 57.7263 26.5366 57.4347 26.2998 57.2229C26.0631 57.0111 25.7566 56.8941 25.439 56.8941C25.1214 56.8941 24.8149 57.0111 24.5781 57.2229C24.3414 57.4347 24.191 57.7263 24.1558 58.042L24.155 58.0419V58.0559V67.2268C24.155 68.7873 24.7749 70.2839 25.8784 71.3873C26.9818 72.4908 28.4784 73.1107 30.0389 73.1107H43.9753C45.5358 73.1107 47.0323 72.4908 48.1358 71.3873C49.2392 70.2839 49.8591 68.7873 49.8591 67.2268V35.0781V35.078C49.8578 32.7217 49.2035 30.4118 47.969 28.4047C46.7479 26.4195 45.0064 24.8074 42.9341 23.7429V7.91113C43.15 7.82186 43.3375 7.67414 43.4751 7.48377C43.6305 7.26862 43.7142 7.00996 43.7142 6.74454C43.7142 6.47912 43.6305 6.22046 43.4751 6.00531C43.3375 5.81494 43.15 5.66721 42.9341 5.57794V2.15186C42.9341 1.98285 42.9006 1.81551 42.8354 1.65956C42.7703 1.5036 42.6748 1.36214 42.5545 1.24337C42.4343 1.1246 42.2916 1.03089 42.1349 0.967669C41.9784 0.904552 41.8109 0.873087 41.6422 0.87509H32.4008C32.232 0.873087 32.0646 0.904552 31.9081 0.967669C31.7513 1.03089 31.6087 1.1246 31.4884 1.24337C31.3682 1.36214 31.2727 1.5036 31.2075 1.65956C31.1424 1.81551 31.1088 1.98284 31.1088 2.15186C31.1088 2.15186 31.1088 2.15187 31.1088 2.15187V5.57794C30.8929 5.66721 30.7054 5.81494 30.5679 6.00531C30.4124 6.22046 30.3288 6.47912 30.3288 6.74454C30.3288 7.00996 30.4124 7.26862 30.5679 7.48377C30.7054 7.67414 30.8929 7.82186 31.1088 7.91113V23.7426C29.0285 24.8012 27.2782 26.4108 26.0493 28.3964C24.8068 30.4039 24.1461 32.7169 24.1406 35.0778ZM32.9243 25.7197L32.9251 25.7193C33.152 25.6203 33.3452 25.4575 33.4812 25.2506C33.6172 25.0438 33.6902 24.8018 33.6912 24.5543V24.5538V19.8413H40.4094L40.4094 24.5106L40.4094 24.5111C40.4104 24.7586 40.4833 25.0006 40.6193 25.2074C40.7553 25.4143 40.9485 25.5771 41.1754 25.6761L41.1762 25.6765C42.8313 26.3857 44.2698 27.5195 45.3463 28.963C46.3947 30.3691 47.0634 32.0204 47.2893 33.7581H26.8119C27.0446 32.0283 27.7164 30.386 28.7642 28.9881C29.8402 27.5526 31.2749 26.4254 32.9243 25.7197ZM33.6912 3.42863H40.4094V5.48217H33.6912V3.42863ZM33.6912 8.02131H40.4094V17.3454H33.6912V8.02131ZM47.3776 52.1864H26.723V36.3548H47.3776V52.1864Z" fill="white" stroke="white" stroke-width="0.25"/>
<path d="M70.4975 70.5719C70.8247 70.58 71.1367 70.7135 71.3687 70.9455C71.6082 71.1849 71.7427 71.5097 71.7427 71.8483C71.7427 72.1869 71.6082 72.5117 71.3687 72.7511C71.1293 72.9906 70.8045 73.1251 70.4659 73.1251H54.6291C54.2905 73.1251 53.9657 72.9906 53.7263 72.7511C53.4868 72.5117 53.3523 72.1869 53.3523 71.8483C53.3523 71.5097 53.4868 71.1849 53.7263 70.9455C53.9657 70.7061 54.2905 70.5715 54.6291 70.5715H54.6302C55.7987 70.5823 56.9249 70.1349 57.7674 69.3251L57.7714 69.3213L57.7714 69.3214C58.7522 68.458 59.9456 67.8732 61.2275 67.6267V54.6698C59.8978 54.521 58.6086 54.1181 57.4302 53.4827C56.2186 52.8294 55.1481 51.9431 54.2802 50.8747C53.4122 49.8064 52.764 48.577 52.3726 47.2574C51.9812 45.9377 51.8545 44.5537 51.9997 43.1849L53.3385 30.3577C53.3386 30.3576 53.3386 30.3576 53.3386 30.3575C53.3704 30.0415 53.5188 29.7488 53.7548 29.5364C53.9908 29.324 54.2975 29.2071 54.615 29.2086M70.4975 70.5719L54.6147 29.3336M70.4975 70.5719L70.4939 70.5572C69.3303 70.5643 68.2098 70.1171 67.3708 69.3107L67.3708 69.3106L67.3667 69.307C66.386 68.4436 65.1925 67.8588 63.9106 67.6123V54.6557C65.2429 54.5103 66.5351 54.11 67.7167 53.4761C68.9316 52.8243 70.0055 51.9386 70.8764 50.8698C71.7474 49.8011 72.3982 48.5706 72.7914 47.2491C73.1845 45.9278 73.3123 44.5418 73.1673 43.1708L70.4975 70.5719ZM54.615 29.2086C54.6151 29.2086 54.6152 29.2086 54.6153 29.2086L54.6147 29.3336M54.615 29.2086H54.6147V29.3336M54.615 29.2086H70.4512M54.6147 29.3336H70.4515M70.4512 29.2086C70.4511 29.2086 70.451 29.2086 70.4509 29.2086L70.4515 29.3336M70.4512 29.2086H70.4515V29.3336M70.4512 29.2086C70.7687 29.2071 71.0754 29.324 71.3114 29.5364C71.5472 29.7486 71.6956 30.0411 71.7276 30.3567C71.7276 30.3571 71.7276 30.3574 71.7277 30.3577L72.7928 39.5412L72.793 39.5428L73.1673 43.1705L70.4515 29.3336M54.5957 44.2634H54.5959L54.5955 44.2569C54.5811 43.9795 54.5811 43.7015 54.5954 43.4241L55.8785 31.7622H69.3311L70.0248 38.4084H58.3867C58.0481 38.4084 57.7234 38.5429 57.4839 38.7823C57.2445 39.0218 57.11 39.3465 57.11 39.6852C57.11 40.0238 57.2445 40.3485 57.4839 40.588C57.7234 40.8274 58.0481 40.9619 58.3867 40.9619H70.2958L70.5574 43.4544C70.6434 44.5195 70.515 45.5909 70.1799 46.6055C69.8446 47.6206 69.3091 48.5582 68.6051 49.3627C67.9012 50.1672 67.043 50.8224 66.0814 51.2894C65.1198 51.7565 64.0743 52.026 63.0067 52.0819C61.9391 52.1379 60.8712 51.9791 59.866 51.6151C58.8609 51.2511 57.939 50.6892 57.1548 49.9627C56.3706 49.2361 55.74 48.3597 55.3005 47.3852C54.8611 46.4112 54.6215 45.3589 54.5957 44.2907V44.2634ZM64.7005 70.5571H60.5384C61.1774 70.218 61.8916 70.0391 62.6195 70.0391C63.3473 70.0391 64.0616 70.218 64.7005 70.5571Z" fill="white" stroke="white" stroke-width="0.25"/>
<path d="M19.3984 70.5571L19.3995 70.5571L19.4283 70.5571C19.7669 70.5571 20.0917 70.6917 20.3311 70.9311C20.5706 71.1705 20.7051 71.4953 20.7051 71.8339C20.7051 72.1725 20.5706 72.4973 20.3311 72.7367C20.0917 72.9762 19.7669 73.1107 19.4283 73.1107H3.59147C3.25285 73.1107 2.9281 72.9762 2.68866 72.7367C2.44922 72.4973 2.3147 72.1725 2.3147 71.8339C2.3147 71.4953 2.44922 71.1705 2.68866 70.9311C2.9281 70.6917 3.25285 70.5571 3.59147 70.5571H3.59262C4.76112 70.5679 5.88733 70.1204 6.7298 69.3107L6.73363 69.307L6.73371 69.3071C7.70647 68.4484 8.88942 67.864 10.1611 67.6129V54.6554C8.83135 54.5066 7.54216 54.1037 6.36379 53.4683C5.15224 52.815 4.08174 51.9286 3.21379 50.8603C2.34584 49.792 1.69756 48.5626 1.30619 47.2429C0.914827 45.9233 0.788095 44.5393 0.933277 43.1705L0.933284 43.1704L2.30093 30.3433C2.30094 30.3432 2.30096 30.3431 2.30097 30.3429C2.33281 30.027 2.4812 29.7344 2.71719 29.522C2.9532 29.3096 3.25988 29.1927 3.57738 29.1942M19.3984 70.5571L20.5657 30.3558C20.537 30.0707 20.4031 29.8066 20.1902 29.6149C19.9772 29.4232 19.7004 29.3178 19.4139 29.3192V29.1942H19.4136H3.57738M19.3984 70.5571C18.2299 70.5679 17.1036 70.1204 16.2612 69.3107L16.2613 69.3106L16.2571 69.307C15.2764 68.4436 14.0829 67.8588 12.8011 67.6123V54.6554C14.1308 54.5066 15.42 54.1037 16.5984 53.4683C17.8099 52.815 18.8804 51.9286 19.7484 50.8603C20.6163 49.792 21.2646 48.5626 21.656 47.2429C22.0473 45.9234 22.1741 44.5395 22.0289 43.1708L22.0289 43.1705L21.6546 39.5427L21.6546 39.5425L20.69 30.3433C20.69 30.3433 20.69 30.3432 20.69 30.3431L19.3984 70.5571ZM3.57738 29.1942C3.57749 29.1942 3.57759 29.1942 3.5777 29.1942L3.57707 29.3192M3.57738 29.1942H3.57707V29.3192M3.57707 29.3192C3.29055 29.3178 3.01378 29.4232 2.80081 29.6149C2.58784 29.8066 2.45395 30.0707 2.42531 30.3558L3.57707 29.3192ZM3.50051 44.2634H3.50068L3.50034 44.2569C3.48586 43.9794 3.4858 43.7013 3.50017 43.4238L4.72623 31.7478H18.2215L18.9152 38.394H7.29153C6.95291 38.394 6.62816 38.5285 6.38872 38.7679C6.14928 39.0074 6.01476 39.3321 6.01476 39.6708C6.01476 40.0094 6.14928 40.3341 6.38872 40.5736C6.62816 40.813 6.95291 40.9475 7.29153 40.9475H19.2006L19.4622 43.44C19.5482 44.5051 19.4198 45.5765 19.0847 46.5911C18.7494 47.6062 18.2139 48.5438 17.5099 49.3483C16.806 50.1528 15.9478 50.808 14.9862 51.275C14.0246 51.7421 12.9791 52.0116 11.9115 52.0675C10.8439 52.1234 9.77599 51.9647 8.77084 51.6007C7.76569 51.2367 6.84375 50.6748 6.05956 49.9483C5.27536 49.2217 4.64484 48.3453 4.20528 47.3708C3.76593 46.3968 3.52629 45.3445 3.50051 44.2763V44.2634ZM11.5137 70.044C12.2415 70.022 12.9586 70.2008 13.5875 70.5571H9.40314C10.0403 70.1958 10.7678 70.0167 11.5053 70.044L11.5052 70.0443L11.5137 70.044Z" fill="white" stroke="white" stroke-width="0.25"/>
</svg>
