<svg width="20" height="20" viewBox="0 0 20 20" xmlns="http://www.w3.org/2000/svg">
<rect width="19.0645" height="19.0645" fill="currentColor"/>
<path d="M7.5468 9.53225C7.5468 8.43551 8.43563 7.5462 9.53237 7.5462C10.6291 7.5462 11.5184 8.43551 11.5184 9.53225C11.5184 10.629 10.6291 11.5183 9.53237 11.5183C8.43563 11.5183 7.5468 10.629 7.5468 9.53225ZM6.47318 9.53225C6.47318 11.2218 7.84278 12.5914 9.53237 12.5914C11.222 12.5914 12.5916 11.2218 12.5916 9.53225C12.5916 7.84265 11.222 6.47306 9.53237 6.47306C7.84278 6.47306 6.47318 7.84265 6.47318 9.53225ZM11.9977 6.35176C11.9977 6.49316 12.0396 6.6314 12.1181 6.749C12.1966 6.8666 12.3082 6.95827 12.4388 7.01244C12.5694 7.0666 12.7132 7.08081 12.8519 7.05328C12.9905 7.02575 13.118 6.95772 13.218 6.85777C13.318 6.75783 13.3861 6.63047 13.4138 6.4918C13.4414 6.35313 13.4273 6.20938 13.3733 6.07872C13.3192 5.94807 13.2276 5.83638 13.1101 5.75777C12.9926 5.67917 12.8543 5.63718 12.7129 5.63713H12.7127C12.5231 5.63722 12.3414 5.71253 12.2073 5.84652C12.0733 5.98051 11.9979 6.16223 11.9977 6.35176ZM7.12547 14.3816C6.54463 14.3552 6.22892 14.2584 6.01911 14.1767C5.74096 14.0684 5.5425 13.9394 5.33384 13.7311C5.12518 13.5227 4.99601 13.3244 4.8882 13.0463C4.80642 12.8366 4.70967 12.5208 4.68326 11.9399C4.65438 11.3119 4.64861 11.1233 4.64861 9.53229C4.64861 7.94131 4.65485 7.75319 4.68326 7.12468C4.70971 6.54384 4.80718 6.22865 4.8882 6.01832C4.99649 5.74017 5.12546 5.54171 5.33384 5.33305C5.54221 5.12439 5.74048 4.99523 6.01911 4.88742C6.22882 4.80563 6.54463 4.70888 7.12547 4.68247C7.75346 4.65359 7.9421 4.64782 9.53237 4.64782C11.1226 4.64782 11.3115 4.65407 11.94 4.68247C12.5208 4.70892 12.836 4.80639 13.0463 4.88742C13.3245 4.99523 13.523 5.12467 13.7316 5.33305C13.9403 5.54142 14.069 5.74017 14.1772 6.01832C14.259 6.22803 14.3558 6.54384 14.3822 7.12468C14.4111 7.75319 14.4168 7.94131 14.4168 9.53229C14.4168 11.1233 14.4111 11.3114 14.3822 11.9399C14.3557 12.5208 14.2585 12.8365 14.1772 13.0463C14.069 13.3244 13.94 13.5229 13.7316 13.7311C13.5232 13.9392 13.3245 14.0684 13.0463 14.1767C12.8366 14.2585 12.5208 14.3552 11.94 14.3816C11.312 14.4105 11.1233 14.4163 9.53237 14.4163C7.94139 14.4163 7.75327 14.4105 7.12547 14.3816ZM7.07614 3.61066C6.44192 3.63955 6.00853 3.74011 5.63005 3.88739C5.23809 4.03947 4.90627 4.24351 4.57469 4.57457C4.24311 4.90562 4.0396 5.23796 3.88751 5.62993C3.74023 6.00865 3.63967 6.44179 3.61079 7.07602C3.58143 7.71125 3.57471 7.91434 3.57471 9.53225C3.57471 11.1502 3.58143 11.3532 3.61079 11.9885C3.63967 12.6227 3.74023 13.0558 3.88751 13.4346C4.0396 13.8263 4.24316 14.159 4.57469 14.4899C4.90622 14.8208 5.23809 15.0246 5.63005 15.1771C6.00925 15.3244 6.44192 15.4249 7.07614 15.4538C7.71171 15.4827 7.91446 15.4899 9.53237 15.4899C11.1503 15.4899 11.3534 15.4832 11.9886 15.4538C12.6229 15.4249 13.056 15.3244 13.4347 15.1771C13.8264 15.0246 14.1585 14.821 14.49 14.4899C14.8216 14.1589 15.0247 13.8263 15.1772 13.4346C15.3245 13.0558 15.4255 12.6227 15.4539 11.9885C15.4828 11.3528 15.4896 11.1502 15.4896 9.53225C15.4896 7.91434 15.4828 7.71125 15.4539 7.07602C15.4251 6.44175 15.3245 6.00841 15.1772 5.62993C15.0247 5.2382 14.8211 4.90615 14.49 4.57457C14.159 4.24299 13.8264 4.03947 13.4352 3.88739C13.056 3.74011 12.6228 3.63907 11.9891 3.61066C11.3538 3.58178 11.1508 3.57458 9.53284 3.57458C7.91493 3.57458 7.71171 3.58131 7.07614 3.61066Z" fill="white"/>
</svg>
