<svg width="169" height="176" viewBox="0 0 169 176" fill="none" xmlns="http://www.w3.org/2000/svg">
<rect x="72" y="58" width="25" height="9" fill="#7A0000"/>
<path d="M106.477 62.3333C106.477 71.0205 106.477 79.6513 106.477 88.3385C106.477 90.3128 105.796 90.9897 103.808 91.0462C99.7193 91.0462 95.6306 91.0462 91.5419 91.0462C90.9173 91.0462 90.2926 91.1026 89.9519 90.3128C89.8383 90.0872 89.3272 89.9744 89.0433 89.9744C88.4754 89.918 87.9075 89.9744 87.3396 89.9744C85.8632 89.9744 85.8064 89.9179 85.8064 88.5077C85.8064 82.0769 85.8064 75.6462 85.8064 69.2154C85.8064 68.2 86.1471 67.8051 87.1693 67.5795C91.4851 66.7897 94.4381 63.2923 94.4381 58.9487C94.4381 54.1538 94.4381 49.4154 94.4381 44.6205C94.4381 43.2667 94.3813 43.2103 92.9616 43.2103C90.9173 43.2103 88.8161 43.2103 86.7718 43.2103C85.9199 43.2103 85.5224 42.9282 85.5792 42.0256C85.636 40.841 85.6928 39.6 85.5792 38.4154C85.2385 35.0308 86.6014 32.2103 88.7025 29.6718C89.7247 28.4308 90.7469 27.1333 91.5419 25.7231C92.1666 24.5949 92.6209 23.2974 92.6777 22.0564C92.7912 16.641 92.7345 11.2256 92.6777 5.81026C92.6777 3.44102 92.5641 3.66667 94.7788 3.66667C95.9146 3.66667 97.0503 3.66667 98.1861 3.66667C99.549 3.66667 99.549 3.72308 99.549 5.02051C99.549 10.6051 99.6058 16.1897 99.549 21.7744C99.549 23.4103 100.003 24.8205 100.969 26.1179C102.104 27.641 103.297 29.1641 104.433 30.6872C105.796 32.6051 106.534 34.6923 106.534 37.118C106.477 45.5231 106.477 53.9282 106.477 62.3333Z" fill="black"/>
<path d="M63.0913 62.2205C63.0913 54.1539 63.2048 46.0872 63.0345 38.0205C62.9777 34.9744 63.9999 32.5487 65.7035 30.1795C67.0664 28.318 68.4293 26.4 69.6218 24.4257C70.0194 23.7487 70.0761 22.7898 70.1329 22C70.1897 16.359 70.1329 10.6616 70.1329 5.02053C70.1329 3.66669 70.1329 3.66669 71.4958 3.66669C72.9155 3.66669 74.3352 3.7231 75.7549 3.66669C76.8339 3.61028 77.1178 4.06156 77.1178 5.02053C77.1178 10.2667 77.2882 15.5128 77.1178 20.7026C77.0042 23.6359 78.1968 25.8923 79.9572 28.0923C81.3201 29.841 82.4558 31.759 83.5348 33.6769C83.9323 34.4103 83.9891 35.3693 83.9891 36.2718C84.0459 38.1334 83.9891 39.9949 84.0459 41.9128C84.1027 42.9282 83.7052 43.2103 82.7398 43.1539C80.6954 43.0975 78.5943 43.1539 76.5499 43.0975C75.5845 43.0975 75.2438 43.4359 75.2438 44.3949C75.2438 49.4154 75.2438 54.4359 75.2438 59.4564C75.2438 63.4616 78.4807 66.6769 82.2287 67.4667C83.8755 67.8051 83.8755 67.7487 83.8755 69.3846C83.8755 75.759 83.8755 82.1333 83.8755 88.5077C83.8755 89.8615 83.8188 89.8616 82.5126 89.8616C81.888 89.8616 81.2065 89.8616 80.5819 89.8616C80.014 89.8616 79.5029 89.8616 79.3325 90.5949C79.2757 90.7641 78.8214 90.9898 78.5943 90.9898C73.9945 90.9898 69.3379 90.9898 64.7381 90.9898C63.8295 90.9898 63.3184 90.5385 63.2616 89.6359C63.2048 89.0154 63.148 88.3949 63.148 87.718C63.148 81.5128 63.148 75.3641 63.148 69.159C63.148 66.8462 63.148 64.4769 63.148 62.1641C62.9777 62.2205 63.0345 62.2205 63.0913 62.2205Z" fill="black"/>
<path d="M12.6069 137.81V115.867H17.4339C18.2857 115.867 19.0807 115.979 19.819 116.149C20.5004 116.318 21.1251 116.656 21.6362 117.051C22.1473 117.503 22.5448 118.067 22.8287 118.8C23.1126 119.533 23.2262 120.436 23.2262 121.564C23.2262 122.467 23.1126 123.2 22.8855 123.82C22.6583 124.441 22.3744 124.949 21.9201 125.344C21.5226 125.738 20.9547 125.964 20.3301 126.077C21.1251 126.246 21.7497 126.528 22.2608 126.979C22.7719 127.431 23.1694 128.051 23.3966 128.785C23.6237 129.518 23.7941 130.42 23.7941 131.492C23.7941 132.564 23.6805 133.467 23.4534 134.256C23.2262 135.046 22.8855 135.723 22.4312 136.287C21.9769 136.795 21.409 137.246 20.7276 137.472C20.0461 137.754 19.2511 137.867 18.2857 137.867H12.6069V137.81ZM16.2413 124.836H17.4339C18.1721 124.836 18.6832 124.723 19.0807 124.497C19.4782 124.272 19.7622 123.877 19.8758 123.426C20.0461 122.918 20.1029 122.297 20.1029 121.564C20.1029 120.774 19.9893 120.21 19.7622 119.759C19.535 119.308 19.1943 119.026 18.6832 118.913C18.2289 118.744 17.6042 118.687 16.866 118.687H16.1846V124.836H16.2413ZM16.2413 134.99H17.6042C18.6832 134.99 19.4215 134.708 19.819 134.087C20.2165 133.467 20.3868 132.564 20.3868 131.379C20.3868 130.477 20.2733 129.8 20.1029 129.236C19.9325 128.672 19.5918 128.277 19.1943 127.995C18.74 127.713 18.1721 127.6 17.4907 127.6H16.2413V134.99Z" fill="black"/>
<path d="M26.2361 137.81V115.867H29.189V129.744L34.5839 115.867H36.9689V137.81H34.016V123.764L28.6212 137.81H26.2361Z" fill="black"/>
<path d="M40.0354 137.81V115.867H43.613V125.062H47.6449V115.867H51.2226V137.81H47.6449V127.882H43.613V137.81H40.0354Z" fill="black"/>
<path d="M54.2322 137.81V115.867H57.8098V125.062H61.8417V115.867H65.4193V137.81H61.8417V127.882H57.8098V137.81H54.2322Z" fill="black"/>
<path d="M68.4858 137.81V115.867H72.0635V125.062H72.9153C74.2782 125.062 75.3571 125.287 76.2657 125.682C77.1744 126.077 77.8558 126.754 78.3101 127.713C78.7644 128.672 78.9916 129.913 78.9916 131.492C78.9916 132.733 78.878 133.749 78.594 134.595C78.3101 135.441 77.9126 136.062 77.3447 136.569C76.8336 137.077 76.1522 137.415 75.4139 137.585C74.6757 137.81 73.7671 137.867 72.8017 137.867H68.4858V137.81ZM72.0635 135.103H72.8017C73.4832 135.103 74.051 134.99 74.4485 134.764C74.8461 134.538 75.1868 134.144 75.3571 133.636C75.5275 133.072 75.6411 132.338 75.6411 131.379C75.6411 130.251 75.4139 129.349 75.0164 128.785C74.6189 128.164 73.8239 127.882 72.7449 127.882H72.0635V135.103ZM80.8088 137.81V115.867H84.3864V137.81H80.8088Z" fill="black"/>
<path d="M87.3962 137.81V115.867H95.6304V118.687H90.9739V125.005H94.6651V127.769H90.9739V135.046H95.6872V137.81H87.3962Z" fill="black"/>
<path d="M103.751 137.81V115.867H106.704V129.744L112.099 115.867H114.484V137.81H111.531V123.764L106.136 137.81H103.751Z" fill="black"/>
<path d="M117.551 137.81V115.867H125.898V118.8H121.128V137.81H117.551Z" fill="black"/>
<path d="M127.829 137.81V115.867H133.621C134.814 115.867 135.779 116.092 136.518 116.6C137.256 117.108 137.824 117.785 138.164 118.744C138.505 119.703 138.676 120.774 138.676 122.128C138.676 123.538 138.448 124.723 137.994 125.569C137.54 126.472 136.972 127.092 136.177 127.487C135.382 127.882 134.473 128.108 133.394 128.108H131.464V137.867H127.829V137.81ZM131.464 125.231H132.826C133.451 125.231 133.962 125.118 134.36 124.892C134.7 124.667 134.984 124.328 135.098 123.877C135.211 123.426 135.325 122.805 135.325 122.015C135.325 121.226 135.268 120.549 135.155 120.097C135.041 119.59 134.814 119.251 134.473 119.026C134.133 118.8 133.565 118.687 132.826 118.687H131.464V125.231Z" fill="black"/>
<path d="M140.72 137.81V115.867H144.297V125.062H145.149C146.512 125.062 147.591 125.287 148.5 125.682C149.408 126.077 150.09 126.754 150.544 127.713C150.998 128.672 151.225 129.913 151.225 131.492C151.225 132.733 151.112 133.749 150.828 134.595C150.544 135.441 150.146 136.062 149.579 136.569C149.068 137.077 148.386 137.415 147.648 137.585C146.91 137.81 146.001 137.867 145.036 137.867H140.72V137.81ZM144.297 135.103H145.036C145.717 135.103 146.285 134.99 146.682 134.764C147.08 134.538 147.421 134.144 147.591 133.636C147.761 133.072 147.875 132.338 147.875 131.379C147.875 130.251 147.648 129.349 147.25 128.785C146.853 128.164 146.058 127.882 144.979 127.882H144.297V135.103ZM153.043 137.81V115.867H156.62V137.81H153.043Z" fill="black"/>
<path d="M1.02222 112.2V97.3077H4.3159C4.88378 97.3077 5.45165 97.3641 5.90595 97.4769C6.36025 97.5897 6.81456 97.8154 7.15528 98.0974C7.49601 98.3795 7.77994 98.7743 7.95031 99.282C8.12067 99.7897 8.23425 100.41 8.23425 101.144C8.23425 101.764 8.17746 102.272 8.0071 102.667C7.83673 103.118 7.66637 103.456 7.38243 103.682C7.09849 103.908 6.75777 104.077 6.30347 104.19C6.81456 104.303 7.26886 104.472 7.60958 104.81C7.95031 105.149 8.23425 105.544 8.40461 106.051C8.57497 106.559 8.63176 107.179 8.63176 107.856C8.63176 108.59 8.57497 109.21 8.40461 109.718C8.23425 110.282 8.0071 110.733 7.72316 111.072C7.38243 111.41 7.04171 111.692 6.53062 111.862C6.07632 112.031 5.50844 112.144 4.88378 112.144H1.02222V112.2ZM3.46409 103.4H4.25911C4.71341 103.4 5.11093 103.344 5.39486 103.174C5.6788 103.005 5.84917 102.779 5.96274 102.441C6.07632 102.103 6.1331 101.708 6.1331 101.2C6.1331 100.692 6.07632 100.241 5.90595 99.959C5.73559 99.6769 5.50844 99.4513 5.16771 99.3949C4.82699 99.282 4.42947 99.2256 3.97517 99.2256H3.46409V103.4ZM3.46409 110.282H4.37269C5.11093 110.282 5.62201 110.056 5.84917 109.662C6.1331 109.267 6.24668 108.646 6.24668 107.8C6.24668 107.179 6.18989 106.728 6.07632 106.333C5.96274 105.938 5.73559 105.656 5.45165 105.487C5.16771 105.318 4.7702 105.205 4.3159 105.205H3.46409V110.282Z" fill="black"/>
<path d="M10.2219 112.2V97.3077H12.6638V103.569H13.2317C14.1403 103.569 14.8785 103.682 15.5032 103.964C16.1278 104.246 16.5821 104.697 16.8661 105.318C17.15 105.938 17.3204 106.785 17.3204 107.856C17.3204 108.703 17.2068 109.379 17.0364 109.944C16.8661 110.508 16.5821 110.959 16.1846 111.297C15.8439 111.636 15.3896 111.862 14.8785 111.974C14.3674 112.087 13.7995 112.2 13.1181 112.2H10.2219ZM12.607 110.338H13.1181C13.5724 110.338 13.9699 110.282 14.2538 110.113C14.5378 109.944 14.7649 109.718 14.8785 109.323C14.9921 108.928 15.0489 108.421 15.0489 107.8C15.0489 107.01 14.9353 106.446 14.6514 106.051C14.3674 105.656 13.8563 105.431 13.1181 105.431H12.6638V110.338H12.607ZM18.5697 112.2V97.3077H21.0116V112.2H18.5697Z" fill="black"/>
<path d="M22.999 112.2V97.3077H28.621V99.2256H25.4409V103.513H27.9395V105.431H25.4409V110.338H28.621V112.2H22.999Z" fill="black"/>
<path d="M33.2208 112.426C32.4258 112.426 31.7444 112.256 31.2333 111.918C30.7222 111.579 30.3247 111.072 30.0975 110.451C29.8704 109.831 29.7568 109.041 29.7568 108.195V107.687H32.0283C32.0283 107.744 32.0283 107.856 32.0283 107.913C32.0283 108.026 32.0283 108.138 32.0283 108.195C32.0283 108.872 32.1419 109.379 32.3122 109.774C32.4826 110.113 32.8233 110.282 33.2776 110.282C33.6183 110.282 33.8455 110.169 34.0159 110C34.1862 109.831 34.2998 109.549 34.3566 109.21C34.4134 108.872 34.4702 108.421 34.4702 107.969C34.4702 107.236 34.3566 106.615 34.0726 106.164C33.7887 105.713 33.3344 105.487 32.5962 105.431C32.5394 105.431 32.5394 105.431 32.4258 105.431C32.369 105.431 32.2554 105.431 32.1987 105.431C32.1419 105.431 32.0283 105.431 31.9715 105.431V103.626C32.0283 103.626 32.0851 103.626 32.1419 103.626C32.1987 103.626 32.2554 103.626 32.369 103.626C32.4258 103.626 32.4826 103.626 32.5394 103.626C33.2776 103.569 33.7887 103.344 34.0726 102.949C34.3566 102.554 34.4702 101.933 34.4702 101.2C34.4702 100.579 34.3566 100.072 34.1862 99.7333C34.0159 99.3949 33.6751 99.2256 33.164 99.2256C32.7097 99.2256 32.369 99.3949 32.1987 99.7897C32.0283 100.185 31.9147 100.636 31.8579 101.256C31.8579 101.313 31.8579 101.369 31.8579 101.538C31.8579 101.651 31.8579 101.821 31.8579 101.933H29.5864V101.2C29.5864 100.354 29.7568 99.6205 30.0407 99.0564C30.3247 98.4359 30.7222 97.9846 31.2901 97.7026C31.8011 97.3641 32.4826 97.2513 33.2208 97.2513C33.9591 97.2513 34.6405 97.4205 35.1516 97.7026C35.6627 98.041 36.117 98.4359 36.4009 99.0564C36.6849 99.6205 36.8552 100.354 36.8552 101.2C36.8552 102.103 36.6849 102.836 36.3442 103.4C36.0034 103.964 35.6059 104.359 35.0948 104.528C35.4356 104.697 35.7195 104.867 36.0034 105.205C36.2874 105.487 36.4577 105.882 36.6281 106.333C36.7985 106.785 36.8552 107.405 36.8552 108.082C36.8552 108.985 36.7417 109.774 36.5145 110.451C36.2874 111.128 35.8899 111.636 35.3788 112.031C34.7541 112.2 34.0726 112.426 33.2208 112.426Z" fill="black"/>
<path d="M37.5935 115.133V110.226H38.0478C38.275 110.113 38.5021 109.887 38.6725 109.662C38.8996 109.436 39.07 109.154 39.2403 108.759C39.4107 108.364 39.5811 107.913 39.6947 107.292C39.8082 106.672 39.9786 105.995 40.0354 105.092C40.149 104.246 40.2057 103.231 40.2625 102.046L40.5465 97.2513H46.4524V110.169H47.8721V115.077H46.1684L45.9981 112.144H39.4675L39.2971 115.077H37.5935V115.133ZM40.3761 110.226H44.2377V99.2821H42.534L42.3637 102.554C42.3069 103.738 42.2501 104.697 42.1365 105.544C42.0229 106.333 41.9094 107.01 41.7958 107.574C41.6822 108.082 41.5119 108.533 41.3415 108.872C41.1711 109.21 41.0008 109.492 40.8304 109.662C40.7168 109.831 40.5465 110.056 40.3761 110.226Z" fill="black"/>
<path d="M49.2917 112.2V97.3077H51.6768V103.513H54.4026V97.3077H56.8445V112.2H54.4026V105.487H51.6768V112.2H49.2917Z" fill="black"/>
<path d="M58.8889 112.2V97.3077H61.3308V103.569H61.8987C62.8073 103.569 63.5455 103.682 64.1702 103.964C64.7948 104.246 65.2491 104.697 65.5331 105.318C65.817 105.938 65.9874 106.785 65.9874 107.856C65.9874 108.703 65.8738 109.379 65.7034 109.944C65.5331 110.508 65.2491 110.959 64.8516 111.297C64.5109 111.636 64.0566 111.862 63.5455 111.974C63.0344 112.087 62.4665 112.2 61.7851 112.2H58.8889ZM61.3308 110.338H61.8419C62.2962 110.338 62.6937 110.282 62.9776 110.113C63.2616 109.944 63.4887 109.718 63.6023 109.323C63.7159 108.928 63.7727 108.421 63.7727 107.8C63.7727 107.01 63.6591 106.446 63.3751 106.051C63.0912 105.656 62.5801 105.431 61.8419 105.431H61.3308V110.338ZM67.2935 112.2V97.3077H69.7354V112.2H67.2935Z" fill="black"/>
<path d="M71.7229 112.2V97.3077H77.3449V99.2256H74.1648V103.513H76.6634V105.431H74.1648V110.338H77.3449V112.2H71.7229Z" fill="black"/>
<path d="M82.0015 115.133V110.226H82.4558C82.6829 110.113 82.9101 109.887 83.0804 109.662C83.3076 109.436 83.4779 109.154 83.6483 108.759C83.8187 108.364 83.989 107.913 84.1026 107.292C84.2162 106.672 84.3865 105.995 84.4433 105.092C84.5569 104.246 84.6137 103.231 84.6705 102.046L84.9544 97.2513H90.8603V110.169H92.28V115.077H90.5764L90.406 112.144H83.8187L83.6483 115.077H82.0015V115.133ZM84.7841 110.226H88.6456V99.2821H86.942L86.7716 102.554C86.7148 103.738 86.6581 104.697 86.5445 105.544C86.4309 106.333 86.3173 107.01 86.2038 107.574C86.0902 108.082 85.9198 108.533 85.7495 108.872C85.5791 109.21 85.4087 109.492 85.2384 109.662C85.1248 109.831 84.9544 110.056 84.7841 110.226Z" fill="black"/>
<path d="M93.6428 112.2V97.3077H99.2648V99.2256H96.0847V103.513H98.5834V105.431H96.0847V110.338H99.2648V112.2H93.6428Z" fill="black"/>
<path d="M100.741 112.2V97.3077H106.363V99.282H103.126V112.144H100.741V112.2Z" fill="black"/>
<path d="M107.556 114.795V112.877C108.067 112.933 108.521 112.877 108.805 112.821C109.146 112.764 109.373 112.651 109.543 112.426C109.714 112.256 109.827 111.974 109.884 111.692C109.941 111.354 109.884 111.015 109.827 110.564L106.988 97.2513H109.26L110.395 103.456L111.02 107.8L111.531 103.456L112.496 97.2513H114.768L112.213 110.846C112.099 111.467 111.985 112.031 111.815 112.482C111.701 112.933 111.531 113.328 111.361 113.61C111.19 113.949 110.906 114.174 110.622 114.344C110.282 114.513 109.884 114.626 109.43 114.682C108.919 114.795 108.294 114.795 107.556 114.795Z" fill="black"/>
<path d="M119.595 112.369C118.63 112.369 117.834 112.144 117.323 111.749C116.756 111.297 116.358 110.733 116.188 110C115.961 109.267 115.847 108.42 115.847 107.462V102.103C115.847 101.087 115.961 100.185 116.188 99.4513C116.415 98.7179 116.812 98.1538 117.323 97.7025C117.834 97.2513 118.63 97.082 119.595 97.082C120.504 97.082 121.242 97.2513 121.753 97.5897C122.264 97.9282 122.661 98.4359 122.889 99.1128C123.116 99.7897 123.229 100.523 123.229 101.369V102.61H120.901V101.313C120.901 100.918 120.901 100.523 120.844 100.185C120.787 99.8461 120.674 99.5641 120.504 99.3948C120.333 99.1692 120.049 99.1128 119.595 99.1128C119.141 99.1128 118.857 99.2256 118.686 99.4513C118.516 99.6769 118.346 99.959 118.289 100.297C118.232 100.636 118.232 101.087 118.232 101.538V108.026C118.232 108.59 118.289 108.985 118.346 109.379C118.402 109.718 118.573 110 118.743 110.169C118.97 110.338 119.197 110.451 119.595 110.451C119.992 110.451 120.276 110.338 120.447 110.113C120.617 109.887 120.731 109.605 120.787 109.267C120.844 108.928 120.844 108.533 120.844 108.082V106.728H123.173V107.913C123.173 108.815 123.059 109.549 122.832 110.226C122.605 110.903 122.264 111.41 121.753 111.805C121.299 112.2 120.56 112.369 119.595 112.369Z" fill="black"/>
<path d="M126.239 112.2V99.282H124.138V97.3077H130.782V99.282H128.681V112.144H126.239V112.2Z" fill="black"/>
<path d="M131.293 112.2L133.962 97.3077H136.574L139.243 112.2H136.972L136.461 108.759H134.132L133.564 112.2H131.293ZM134.36 107.01H136.177L135.268 100.749L134.36 107.01Z" fill="black"/>
<path d="M148.159 115.133L147.875 112.2H140.549V97.3077H142.991V110.282H146.001V97.3077H148.443V110.282H149.976V115.133H148.159Z" fill="black"/>
<path d="M151.396 112.2V97.3077H153.384V106.672L157.018 97.3077H158.665V112.2H156.677V102.667L152.986 112.2H151.396Z" fill="black"/>
<path d="M160.709 112.2V97.3077H162.697V106.672L166.331 97.3077H167.978V112.2H165.99V102.667L162.299 112.2H160.709Z" fill="black"/>
<path d="M29.4729 154.959V146.497H30.5519V150.164H32.4826V146.497H33.5048V154.959H32.4259V151.01H30.4951V154.959H29.4729Z" fill="black"/>
<path d="M34.2998 154.959L35.8899 146.497H36.912L38.5021 154.959H37.4799L37.1392 152.815H35.6059L35.2652 154.959H34.2998ZM35.8331 151.969H37.0824L36.4577 148.133L35.8331 151.969Z" fill="black"/>
<path d="M41.4551 154.959V146.497H42.534V150.277H42.9316L44.2945 146.497H45.3734L43.8969 150.503L45.6006 154.959H44.5216L42.9883 150.841H42.5908V154.959H41.4551Z" fill="black"/>
<path d="M48.1561 155.015C47.645 155.015 47.2475 154.903 46.9067 154.677C46.6228 154.451 46.3957 154.113 46.2253 153.718C46.1117 153.323 46.0549 152.815 46.0549 152.251V149.036C46.0549 148.472 46.1117 148.021 46.2821 147.626C46.3957 147.231 46.6228 146.892 46.9635 146.723C47.2475 146.497 47.645 146.385 48.1561 146.385C48.6672 146.385 49.0647 146.497 49.3486 146.723C49.6326 146.949 49.8597 147.231 49.9733 147.626C50.0869 148.021 50.2004 148.472 50.2004 149.036V152.251C50.2004 152.815 50.1436 153.267 49.9733 153.718C49.8597 154.113 49.6326 154.451 49.3486 154.677C49.0647 154.903 48.6672 155.015 48.1561 155.015ZM48.1561 154.113C48.44 154.113 48.6672 154.056 48.7807 153.944C48.9511 153.831 49.0079 153.662 49.0647 153.38C49.1215 153.154 49.1215 152.872 49.1215 152.533V148.81C49.1215 148.472 49.1215 148.246 49.0647 148.021C49.0079 147.795 48.8943 147.626 48.7807 147.513C48.6104 147.4 48.44 147.344 48.1561 147.344C47.8721 147.344 47.645 147.4 47.5314 147.513C47.361 147.626 47.3043 147.795 47.2475 148.021C47.1907 148.246 47.1907 148.528 47.1907 148.81V152.533C47.1907 152.872 47.1907 153.097 47.2475 153.38C47.3043 153.605 47.4178 153.774 47.5314 153.944C47.645 154.056 47.8721 154.113 48.1561 154.113Z" fill="black"/>
<path d="M51.2793 154.959V146.497H53.1533C53.6076 146.497 53.9483 146.61 54.2323 146.78C54.5162 146.949 54.6866 147.231 54.8001 147.569C54.9137 147.908 54.9705 148.359 54.9705 148.81C54.9705 149.262 54.9137 149.656 54.7433 149.995C54.6298 150.333 54.4026 150.559 54.1187 150.728C53.8347 150.897 53.494 151.01 53.0965 151.01H52.2447V154.959H51.2793ZM52.3015 150.164H52.8126C53.0965 150.164 53.3804 150.108 53.5508 150.051C53.7212 149.995 53.8347 149.826 53.9483 149.656C54.0051 149.487 54.0619 149.205 54.0619 148.867C54.0619 148.472 54.0619 148.133 54.0051 147.964C53.9483 147.739 53.8347 147.626 53.6644 147.513C53.494 147.456 53.2101 147.4 52.8693 147.4H52.3583V150.164H52.3015Z" fill="black"/>
<path d="M55.7656 154.959V146.497H59.9111V154.959H58.8322V147.344H56.7878V154.959H55.7656Z" fill="black"/>
<path d="M63.0345 155.015C62.5234 155.015 62.1259 154.903 61.7852 154.677C61.5012 154.451 61.2741 154.113 61.1037 153.718C60.9901 153.323 60.9333 152.815 60.9333 152.251V149.036C60.9333 148.472 60.9901 148.021 61.1605 147.626C61.2741 147.231 61.5012 146.892 61.842 146.723C62.1259 146.497 62.5234 146.385 63.0345 146.385C63.5456 146.385 63.9431 146.497 64.227 146.723C64.511 146.949 64.7381 147.231 64.8517 147.626C64.9653 148.021 65.0788 148.472 65.0788 149.036V152.251C65.0788 152.815 65.0221 153.267 64.8517 153.718C64.7381 154.113 64.511 154.451 64.227 154.677C63.9431 154.903 63.5456 155.015 63.0345 155.015ZM63.0345 154.113C63.3184 154.113 63.5456 154.056 63.6592 153.944C63.8295 153.831 63.8863 153.662 63.9431 153.38C63.9999 153.154 63.9999 152.872 63.9999 152.533V148.81C63.9999 148.472 63.9999 148.246 63.9431 148.021C63.8863 147.795 63.7727 147.626 63.6592 147.513C63.4888 147.4 63.3184 147.344 63.0345 147.344C62.7506 147.344 62.5234 147.4 62.4098 147.513C62.2395 147.626 62.1827 147.795 62.1259 148.021C62.0691 148.246 62.0691 148.528 62.0691 148.81V152.533C62.0691 152.872 62.0691 153.097 62.1259 153.38C62.1827 153.605 62.2963 153.774 62.4098 153.944C62.5234 154.056 62.7506 154.113 63.0345 154.113Z" fill="black"/>
<path d="M66.1577 154.959V146.497H68.0317C68.486 146.497 68.8267 146.61 69.1107 146.78C69.3946 146.949 69.565 147.231 69.6785 147.569C69.7921 147.908 69.8489 148.359 69.8489 148.81C69.8489 149.262 69.7921 149.656 69.6218 149.995C69.5082 150.333 69.281 150.559 68.9971 150.728C68.7132 150.897 68.3724 151.01 67.9749 151.01H67.1231V154.959H66.1577ZM67.1799 150.164H67.691C67.9749 150.164 68.2589 150.108 68.4292 150.051C68.5996 149.995 68.7132 149.826 68.8267 149.656C68.8835 149.487 68.9403 149.205 68.9403 148.867C68.9403 148.472 68.9403 148.133 68.8835 147.964C68.8267 147.739 68.7132 147.626 68.5428 147.513C68.3724 147.456 68.0885 147.4 67.7478 147.4H67.2367V150.164H67.1799Z" fill="black"/>
<path d="M70.1328 154.959L71.7229 146.497H72.745L74.3351 154.959H73.3129L72.9722 152.815H71.4389L71.0982 154.959H70.1328ZM71.6093 151.969H72.8586L72.234 148.133L71.6093 151.969Z" fill="black"/>
<path d="M75.698 154.959V147.4H74.3918V146.497H77.9695V147.4H76.7201V154.959H75.698Z" fill="black"/>
<path d="M78.7646 154.959V146.497H79.6733V152.364L81.888 146.497H82.6262V154.959H81.7176V149.036L79.5029 154.959H78.7646Z" fill="black"/>
<path d="M83.8186 154.959V146.497H85.579C85.9197 146.497 86.2037 146.554 86.4876 146.61C86.7148 146.667 86.9419 146.836 87.1123 147.005C87.2826 147.174 87.3962 147.4 87.5098 147.682C87.5666 147.964 87.6234 148.246 87.6234 148.641C87.6234 148.98 87.5666 149.318 87.5098 149.544C87.453 149.826 87.3394 149.995 87.1691 150.164C86.9987 150.333 86.8283 150.39 86.5444 150.446C86.8283 150.503 87.1123 150.672 87.2826 150.841C87.453 151.01 87.6234 151.236 87.6802 151.574C87.7937 151.856 87.7937 152.195 87.7937 152.59C87.7937 152.928 87.7369 153.267 87.6802 153.605C87.6234 153.887 87.5098 154.169 87.3394 154.395C87.1691 154.621 86.9987 154.79 86.7148 154.903C86.4876 155.015 86.2037 155.072 85.863 155.072H83.8186V154.959ZM84.8976 149.995H85.5222C85.8062 149.995 86.0333 149.939 86.2037 149.882C86.374 149.769 86.4876 149.656 86.5444 149.431C86.6012 149.205 86.658 148.923 86.658 148.641C86.658 148.246 86.6012 147.964 86.4876 147.795C86.374 147.626 86.2037 147.513 85.9765 147.456C85.7494 147.4 85.4654 147.4 85.1247 147.4H84.8976V149.995ZM84.8976 154.113H85.6358C86.0901 154.113 86.4308 154 86.6012 153.718C86.7716 153.492 86.8283 153.097 86.8283 152.533C86.8283 152.195 86.7716 151.856 86.7148 151.631C86.658 151.405 86.4876 151.236 86.3173 151.067C86.1469 150.954 85.863 150.897 85.579 150.897H84.9544V154.113H84.8976Z" fill="black"/>
<path d="M88.7023 156.313L88.532 155.805C88.7023 155.749 88.8159 155.636 88.9295 155.467C89.0431 155.297 89.0999 155.128 89.0999 154.903H88.5888V153.718H89.611V154.903C89.611 155.297 89.5542 155.58 89.3838 155.805C89.2134 156.031 88.9863 156.2 88.7023 156.313Z" fill="black"/>
<path d="M93.4726 154.959V147.4H92.1665V146.497H95.7441V147.4H94.4948V154.959H93.4726Z" fill="black"/>
<path d="M96.4824 154.959V146.497H97.391V152.364L99.6057 146.497H100.344V154.959H99.4354V149.036L97.2207 154.959H96.4824Z" fill="black"/>
<path d="M101.593 154.959L101.707 146.497H102.729L104.092 153.38L105.455 146.497H106.477L106.591 154.959H105.739L105.682 148.81L104.376 154.959H103.751L102.502 148.81L102.445 154.959H101.593Z" fill="black"/>
<path d="M107.783 154.959V146.497H111.02V147.344H108.805V149.995H109.032C109.6 149.995 110.054 150.051 110.395 150.221C110.736 150.39 111.02 150.615 111.19 150.954C111.361 151.292 111.474 151.8 111.474 152.477C111.474 152.928 111.417 153.267 111.361 153.605C111.247 153.887 111.133 154.169 110.906 154.395C110.736 154.621 110.452 154.733 110.168 154.846C109.884 154.959 109.543 154.959 109.089 154.959H107.783ZM108.805 154.113H109.089C109.373 154.113 109.657 154.056 109.884 154C110.111 153.944 110.225 153.774 110.338 153.549C110.452 153.323 110.509 152.985 110.509 152.477C110.509 151.913 110.395 151.462 110.225 151.236C110.054 151.01 109.657 150.897 109.146 150.897H108.862V154.113H108.805Z" fill="black"/>
<path d="M112.383 154.959V146.497H113.291V152.364L115.506 146.497H116.244V154.959H115.336V149.036L113.121 154.959H112.383Z" fill="black"/>
<path d="M116.926 154.959V154.056C117.039 154.056 117.21 154.056 117.323 154C117.437 154 117.55 153.887 117.607 153.774C117.721 153.662 117.778 153.492 117.834 153.267C117.891 153.041 117.948 152.759 118.005 152.364C118.062 151.969 118.118 151.518 118.118 150.897L118.345 146.385H121.696V154.846H120.617V147.287H119.254L119.084 150.897C119.027 151.462 119.027 151.913 118.97 152.364C118.913 152.815 118.857 153.154 118.743 153.492C118.629 153.831 118.516 154.056 118.345 154.282C118.175 154.508 118.005 154.621 117.721 154.733C117.55 154.959 117.267 154.959 116.926 154.959Z" fill="black"/>
<path d="M122.434 156.482V154.113H122.775C122.889 154 123.002 153.887 123.116 153.774C123.229 153.662 123.343 153.436 123.4 153.21C123.513 152.985 123.57 152.703 123.627 152.308C123.684 151.969 123.74 151.518 123.854 150.954C123.911 150.39 123.968 149.769 123.968 148.98L124.081 146.497H127.261V154.113H128V156.482H127.204L127.148 154.959H123.4L123.343 156.482H122.434ZM123.74 154.113H126.182V147.4H124.933L124.876 149.318C124.876 150.051 124.819 150.728 124.763 151.236C124.706 151.744 124.649 152.195 124.592 152.477C124.535 152.815 124.422 153.097 124.365 153.267C124.252 153.492 124.195 153.662 124.081 153.774C123.968 153.831 123.854 154 123.74 154.113Z" fill="black"/>
<path d="M128.794 154.959V146.497H129.703V152.364L131.918 146.497H132.656V154.959H131.747V149.036L129.533 154.959H128.794Z" fill="black"/>
<path d="M133.905 154.959V146.497H134.984V150.164H136.915V146.497H137.994V154.959H136.915V151.01H134.984V154.959H133.905Z" fill="black"/>
<path d="M139.13 154.959V146.497H142.026V147.4H140.209V154.959H139.13Z" fill="black"/>
<path d="M142.707 156.313L142.537 155.805C142.707 155.749 142.821 155.636 142.935 155.467C143.048 155.297 143.105 155.128 143.105 154.903H142.537V153.718H143.559V154.903C143.559 155.297 143.502 155.58 143.332 155.805C143.219 156.031 142.991 156.2 142.707 156.313Z" fill="black"/>
<path d="M1.59009 169.738V167.369H1.93081C2.04439 167.256 2.15796 167.144 2.27154 167.031C2.38511 166.918 2.49869 166.692 2.55548 166.467C2.66905 166.241 2.72584 165.959 2.78263 165.564C2.83942 165.226 2.95299 164.774 3.00978 164.21C3.06657 163.646 3.12335 163.026 3.12335 162.236L3.23693 159.754H6.41704V167.369H7.15528V169.738H6.36025L6.30346 168.215H2.49869L2.4419 169.738H1.59009ZM2.95299 167.369H5.39486V160.656H4.14553L4.08874 162.574C4.08874 163.308 4.03196 163.985 3.97517 164.492C3.91838 165 3.86159 165.451 3.80481 165.733C3.74802 166.072 3.63444 166.354 3.57766 166.523C3.46408 166.749 3.40729 166.918 3.29372 167.031C3.12335 167.087 3.06657 167.256 2.95299 167.369Z" fill="black"/>
<path d="M7.9502 168.215V159.754H10.9032V160.656H9.02916V163.477H10.5624V164.323H9.02916V167.426H10.9032V168.272H7.9502V168.215Z" fill="black"/>
<path d="M11.7551 168.215V159.754H12.8341V163.421H14.7649V159.754H15.8438V168.215H14.7649V164.267H12.8341V168.215H11.7551Z" fill="black"/>
<path d="M17.0364 168.215V159.754H18.1153V163.251H18.3993C18.9672 163.251 19.4215 163.308 19.7622 163.477C20.1029 163.646 20.3868 163.872 20.5572 164.21C20.7276 164.549 20.8411 165.056 20.8411 165.733C20.8411 166.185 20.7844 166.523 20.7276 166.862C20.614 167.144 20.5004 167.426 20.2733 167.651C20.1029 167.877 19.819 167.99 19.535 168.103C19.2511 168.215 18.9104 168.215 18.4561 168.215H17.0364ZM18.0586 167.369H18.3993C18.74 167.369 18.9672 167.313 19.1943 167.256C19.4215 167.2 19.535 167.031 19.6486 166.805C19.7622 166.579 19.819 166.241 19.819 165.733C19.819 165.169 19.7054 164.718 19.535 164.492C19.3079 164.267 18.9672 164.154 18.4561 164.154H18.1153V167.369H18.0586Z" fill="black"/>
<path d="M23.7939 168.215V159.754H25.6679C26.1222 159.754 26.463 159.867 26.7469 160.036C27.0308 160.205 27.2012 160.487 27.3148 160.826C27.4284 161.164 27.4851 161.615 27.4851 162.067C27.4851 162.518 27.4284 162.913 27.258 163.251C27.1444 163.59 26.9173 163.815 26.6333 163.985C26.3494 164.154 26.0087 164.267 25.6111 164.267H24.7593V168.215H23.7939ZM24.8161 163.421H25.3272C25.6111 163.421 25.8951 163.364 26.0655 163.308C26.2358 163.251 26.3494 163.082 26.463 162.913C26.5197 162.744 26.5765 162.462 26.5765 162.123C26.5765 161.728 26.5765 161.39 26.5198 161.22C26.463 160.995 26.3494 160.882 26.179 160.769C26.0087 160.713 25.7247 160.656 25.384 160.656H24.8729V163.421H24.8161Z" fill="black"/>
<path d="M30.211 168.272C29.6999 168.272 29.3024 168.159 28.9617 167.933C28.6777 167.708 28.4506 167.369 28.2802 166.974C28.1667 166.58 28.1099 166.072 28.1099 165.508V162.292C28.1099 161.728 28.1667 161.277 28.337 160.882C28.4506 160.487 28.6777 160.149 29.0185 159.98C29.3024 159.754 29.6999 159.641 30.211 159.641C30.7221 159.641 31.1196 159.754 31.4035 159.98C31.6875 160.205 31.9146 160.487 32.0282 160.882C32.1418 161.277 32.2554 161.728 32.2554 162.292V165.508C32.2554 166.072 32.1986 166.523 32.0282 166.974C31.9146 167.369 31.6875 167.708 31.4035 167.933C31.1196 168.159 30.7221 168.272 30.211 168.272ZM30.211 167.369C30.4949 167.369 30.7221 167.313 30.8357 167.2C31.006 167.087 31.0628 166.918 31.1196 166.636C31.1764 166.41 31.1764 166.128 31.1764 165.79V162.067C31.1764 161.728 31.1764 161.503 31.1196 161.277C31.0628 161.051 30.9492 160.882 30.8357 160.769C30.6653 160.656 30.4949 160.6 30.211 160.6C29.9271 160.6 29.6999 160.656 29.5863 160.769C29.416 160.882 29.3592 161.051 29.3024 161.277C29.2456 161.503 29.2456 161.785 29.2456 162.067V165.79C29.2456 166.128 29.2456 166.354 29.3024 166.636C29.3592 166.862 29.4728 167.031 29.5863 167.2C29.6999 167.313 29.9271 167.369 30.211 167.369Z" fill="black"/>
<path d="M32.7666 168.215L34.527 163.872L32.937 159.754H33.9591L35.3788 163.815H35.4356V159.754H36.3442V163.815H36.401L37.8207 159.754H38.8429L37.2528 163.872L39.0132 168.215H37.9911L36.401 163.985H36.3442V168.215H35.4356V163.985H35.3788L33.7888 168.215H32.7666Z" fill="black"/>
<path d="M39.1267 169.738V167.369H39.4674C39.581 167.256 39.6946 167.144 39.8082 167.031C39.9217 166.918 40.0353 166.692 40.0921 166.467C40.2057 166.241 40.2625 165.959 40.3192 165.564C40.376 165.226 40.4896 164.774 40.5464 164.21C40.6032 163.646 40.66 163.026 40.66 162.236L40.7736 159.754H43.9537V167.369H44.6919V169.738H43.8969L43.8401 168.215H40.0921L40.0353 169.738H39.1267ZM40.4896 167.369H42.9315V160.656H41.6822L41.6254 162.574C41.6254 163.308 41.5686 163.985 41.5118 164.492C41.455 165 41.3982 165.451 41.3414 165.733C41.2846 166.072 41.1711 166.354 41.1143 166.523C41.0007 166.749 40.9439 166.918 40.8303 167.031C40.66 167.087 40.6032 167.256 40.4896 167.369Z" fill="black"/>
<path d="M45.4868 168.215V159.754H48.4398V160.656H46.5658V163.477H48.099V164.323H46.5658V167.426H48.4398V168.272H45.4868V168.215Z" fill="black"/>
<path d="M49.2917 168.215V159.754H50.3707V163.421H52.3015V159.754H53.3805V168.215H52.3015V164.267H50.3707V168.215H49.2917Z" fill="black"/>
<path d="M54.573 168.215V159.754H55.4816V165.621L57.6963 159.754H58.4346V168.215H57.526V162.292L55.3112 168.215H54.573Z" fill="black"/>
<path d="M59.1729 168.215L60.7629 164.436C60.4222 164.267 60.1382 163.985 59.9679 163.59C59.7407 163.195 59.6839 162.687 59.6839 162.123C59.6839 161.672 59.7407 161.277 59.9111 160.938C60.0815 160.6 60.3086 160.318 60.6493 160.092C60.9901 159.867 61.4444 159.81 62.069 159.81H63.6023V168.272H62.5233V164.774H61.8987C61.8987 164.774 61.8419 164.774 61.7851 164.774C61.7283 164.774 61.6715 164.774 61.6715 164.774L60.3654 168.272H59.1729V168.215ZM62.1258 163.815H62.5233V160.544H62.1258C61.6715 160.544 61.274 160.656 61.0468 160.882C60.8197 161.108 60.7061 161.503 60.7061 162.01C60.7061 162.631 60.8197 163.082 61.0468 163.364C61.2172 163.703 61.5579 163.815 62.1258 163.815Z" fill="black"/>
<path d="M66.8958 168.215V159.754H67.8044V165.621L70.0191 159.754H70.7573V168.215H69.8487V162.292L67.634 168.215H66.8958Z" fill="black"/>
<path d="M73.54 168.215V167.313C73.6536 167.313 73.824 167.313 73.9376 167.256C74.0511 167.256 74.1647 167.144 74.2215 167.031C74.3351 166.918 74.3919 166.749 74.4486 166.523C74.5054 166.297 74.5622 166.015 74.619 165.621C74.6758 165.226 74.7326 164.774 74.7326 164.154L74.9597 159.641H78.3102V168.103H77.2312V160.544H75.8683L75.698 164.154C75.6412 164.718 75.6412 165.169 75.5844 165.621C75.5276 166.072 75.4708 166.41 75.3572 166.749C75.2437 167.087 75.1301 167.313 74.9597 167.538C74.7894 167.764 74.619 167.877 74.3351 167.99C74.2215 168.215 73.9376 168.215 73.54 168.215Z" fill="black"/>
<path d="M83.3643 168.272C82.8532 168.272 82.5125 168.159 82.2285 167.933C81.9446 167.708 81.7742 167.369 81.6607 166.974C81.5471 166.58 81.4903 166.072 81.4903 165.508V164.323H80.6385V168.215H79.6731V159.754H80.6385V163.421H81.4903V162.349C81.4903 161.785 81.5471 161.277 81.6607 160.882C81.7742 160.487 82.0014 160.149 82.2285 159.98C82.5125 159.754 82.91 159.641 83.3643 159.641C83.8186 159.641 84.2161 159.754 84.5 159.98C84.784 160.205 84.9543 160.487 85.0679 160.938C85.1815 161.333 85.2383 161.841 85.2383 162.405V165.564C85.2383 166.128 85.1815 166.58 85.0679 167.031C84.9543 167.426 84.7272 167.764 84.5 167.99C84.2161 168.159 83.8186 168.272 83.3643 168.272ZM83.3643 167.369C83.6482 167.369 83.8186 167.313 83.989 167.2C84.1025 167.087 84.2161 166.918 84.2729 166.636C84.3297 166.41 84.3297 166.128 84.3297 165.79V162.067C84.3297 161.728 84.3297 161.503 84.2729 161.277C84.2161 161.051 84.1025 160.882 83.989 160.769C83.8754 160.656 83.6482 160.6 83.3643 160.6C83.0804 160.6 82.91 160.656 82.7396 160.769C82.626 160.882 82.5125 161.051 82.4557 161.277C82.3989 161.503 82.3989 161.785 82.3989 162.067V165.79C82.3989 166.128 82.3989 166.354 82.4557 166.636C82.5125 166.862 82.626 167.031 82.7396 167.2C82.8532 167.313 83.0804 167.369 83.3643 167.369Z" fill="black"/>
<path d="M86.3171 168.215V159.754H89.554V160.6H87.3393V163.251H87.5665C88.1343 163.251 88.5886 163.308 88.9294 163.477C89.2701 163.646 89.554 163.872 89.7244 164.21C89.8948 164.549 90.0083 165.056 90.0083 165.733C90.0083 166.185 89.9515 166.523 89.8948 166.862C89.7812 167.144 89.6676 167.426 89.4405 167.651C89.2701 167.877 88.9862 167.99 88.7022 168.103C88.4183 168.215 88.0776 168.215 87.6233 168.215H86.3171ZM87.3393 167.369H87.6233C87.9072 167.369 88.1911 167.313 88.4183 167.256C88.6454 167.2 88.759 167.031 88.8726 166.805C88.9862 166.579 89.0429 166.241 89.0429 165.733C89.0429 165.169 88.9294 164.718 88.759 164.492C88.5886 164.267 88.1911 164.154 87.68 164.154H87.3961V167.369H87.3393Z" fill="black"/>
<path d="M92.8477 168.272C92.3366 168.272 91.9391 168.159 91.5984 167.933C91.3145 167.708 91.0873 167.369 90.9169 166.974C90.8034 166.58 90.7466 166.072 90.7466 165.508V162.292C90.7466 161.728 90.8034 161.277 90.9737 160.882C91.0873 160.487 91.3145 160.149 91.6552 159.98C91.9391 159.754 92.3366 159.641 92.8477 159.641C93.3588 159.641 93.7563 159.754 94.0403 159.98C94.3242 160.205 94.5514 160.487 94.6649 160.882C94.7785 161.277 94.8921 161.728 94.8921 162.292V165.508C94.8921 166.072 94.8353 166.523 94.6649 166.974C94.5514 167.369 94.3242 167.708 94.0403 167.933C93.7563 168.159 93.3588 168.272 92.8477 168.272ZM92.8477 167.369C93.1317 167.369 93.3588 167.313 93.4724 167.2C93.6428 167.087 93.6995 166.918 93.7563 166.636C93.8131 166.41 93.8131 166.128 93.8131 165.79V162.067C93.8131 161.728 93.8131 161.503 93.7563 161.277C93.6995 161.051 93.586 160.882 93.4724 160.769C93.302 160.656 93.1317 160.6 92.8477 160.6C92.5638 160.6 92.3366 160.656 92.2231 160.769C92.0527 160.882 91.9959 161.051 91.9391 161.277C91.8823 161.503 91.8823 161.785 91.8823 162.067V165.79C91.8823 166.128 91.8823 166.354 91.9391 166.636C91.9959 166.862 92.1095 167.031 92.2231 167.2C92.3366 167.313 92.5638 167.369 92.8477 167.369Z" fill="black"/>
<path d="M95.9712 168.215V159.754H98.9241V160.656H97.0502V163.477H98.5834V164.323H97.0502V167.426H98.9241V168.272H95.9712V168.215Z" fill="black"/>
<path d="M101.877 168.215V159.754H103.637C103.978 159.754 104.262 159.81 104.546 159.867C104.773 159.923 105 160.092 105.171 160.262C105.341 160.431 105.455 160.656 105.568 160.938C105.625 161.22 105.682 161.503 105.682 161.897C105.682 162.236 105.625 162.574 105.568 162.8C105.511 163.082 105.398 163.251 105.227 163.421C105.057 163.59 104.887 163.646 104.603 163.703C104.887 163.759 105.171 163.928 105.341 164.097C105.511 164.267 105.682 164.492 105.739 164.831C105.852 165.113 105.852 165.451 105.852 165.846C105.852 166.185 105.795 166.523 105.739 166.862C105.682 167.144 105.568 167.426 105.398 167.651C105.227 167.877 105.057 168.046 104.773 168.159C104.546 168.272 104.262 168.328 103.921 168.328H101.877V168.215ZM102.956 163.251H103.581C103.865 163.251 104.092 163.195 104.262 163.138C104.432 163.026 104.546 162.913 104.603 162.687C104.66 162.462 104.716 162.179 104.716 161.897C104.716 161.503 104.66 161.221 104.546 161.051C104.432 160.882 104.262 160.769 104.035 160.713C103.808 160.656 103.524 160.656 103.183 160.656H102.956V163.251ZM102.956 167.369H103.694C104.148 167.369 104.489 167.256 104.66 166.974C104.83 166.749 104.887 166.354 104.887 165.79C104.887 165.451 104.83 165.113 104.773 164.887C104.716 164.662 104.546 164.492 104.376 164.323C104.205 164.21 103.921 164.154 103.637 164.154H103.013V167.369H102.956Z" fill="black"/>
<path d="M106.42 168.215L108.01 159.754H109.032L110.622 168.215H109.6L109.26 166.072H107.726L107.386 168.215H106.42ZM107.897 165.226H109.146L108.521 161.39L107.897 165.226Z" fill="black"/>
<path d="M110.85 168.215L112.61 163.872L111.02 159.754H112.042L113.462 163.815H113.519V159.754H114.427V163.815H114.484L115.904 159.754H116.926L115.336 163.872L117.096 168.215H116.074L114.484 163.985H114.427V168.215H113.519V163.985H113.462L111.872 168.215H110.85Z" fill="black"/>
<path d="M117.721 168.215V159.754H118.8V163.421H120.73V159.754H121.809V168.215H120.73V164.267H118.8V168.215H117.721Z" fill="black"/>
<path d="M124.933 168.272C124.422 168.272 124.024 168.159 123.684 167.933C123.4 167.708 123.173 167.369 123.002 166.974C122.889 166.58 122.832 166.072 122.832 165.508V162.292C122.832 161.728 122.889 161.277 123.059 160.882C123.173 160.487 123.4 160.149 123.74 159.98C124.024 159.754 124.422 159.641 124.933 159.641C125.444 159.641 125.842 159.754 126.125 159.98C126.409 160.205 126.637 160.487 126.75 160.882C126.864 161.277 126.977 161.728 126.977 162.292V165.508C126.977 166.072 126.92 166.523 126.75 166.974C126.637 167.369 126.409 167.708 126.125 167.933C125.842 168.159 125.444 168.272 124.933 168.272ZM124.933 167.369C125.217 167.369 125.444 167.313 125.558 167.2C125.728 167.087 125.785 166.918 125.842 166.636C125.898 166.41 125.898 166.128 125.898 165.79V162.067C125.898 161.728 125.898 161.503 125.842 161.277C125.785 161.051 125.671 160.882 125.558 160.769C125.387 160.656 125.217 160.6 124.933 160.6C124.649 160.6 124.422 160.656 124.308 160.769C124.138 160.882 124.081 161.051 124.024 161.277C123.968 161.503 123.968 161.785 123.968 162.067V165.79C123.968 166.128 123.968 166.354 124.024 166.636C124.081 166.862 124.195 167.031 124.308 167.2C124.422 167.313 124.649 167.369 124.933 167.369Z" fill="black"/>
<path d="M127.999 168.215V159.754H130.952V160.656H129.078V163.477H130.612V164.323H129.078V167.426H130.952V168.272H127.999V168.215Z" fill="black"/>
<path d="M135.893 168.272C135.382 168.272 134.927 168.159 134.643 167.877C134.359 167.651 134.132 167.313 134.019 166.862C133.905 166.41 133.848 165.959 133.848 165.451V162.462C133.848 161.897 133.905 161.39 134.019 160.995C134.132 160.544 134.359 160.262 134.643 160.036C134.927 159.81 135.382 159.697 135.893 159.697C136.347 159.697 136.745 159.81 137.028 159.979C137.312 160.149 137.483 160.431 137.653 160.826C137.767 161.164 137.824 161.615 137.824 162.123V162.8H136.801V162.179C136.801 161.841 136.801 161.615 136.745 161.333C136.745 161.108 136.631 160.882 136.517 160.769C136.404 160.656 136.177 160.544 135.893 160.544C135.609 160.544 135.382 160.6 135.211 160.769C135.098 160.938 134.984 161.108 134.927 161.39C134.871 161.672 134.871 161.954 134.871 162.292V165.621C134.871 166.072 134.927 166.354 134.984 166.636C135.041 166.918 135.155 167.031 135.268 167.144C135.438 167.256 135.609 167.313 135.836 167.313C136.12 167.313 136.347 167.256 136.461 167.087C136.574 166.918 136.688 166.749 136.688 166.523C136.745 166.297 136.745 165.959 136.745 165.621V165H137.767V165.621C137.767 166.128 137.71 166.579 137.596 166.974C137.483 167.369 137.312 167.651 137.028 167.877C136.745 168.159 136.347 168.272 135.893 168.272Z" fill="black"/>
<path d="M140.72 168.272C140.209 168.272 139.811 168.159 139.47 167.933C139.187 167.708 138.959 167.369 138.789 166.974C138.675 166.58 138.619 166.072 138.619 165.508V162.292C138.619 161.728 138.675 161.277 138.846 160.882C138.959 160.487 139.187 160.149 139.527 159.98C139.811 159.754 140.209 159.641 140.72 159.641C141.231 159.641 141.628 159.754 141.912 159.98C142.196 160.205 142.423 160.487 142.537 160.882C142.651 161.277 142.764 161.728 142.764 162.292V165.508C142.764 166.072 142.707 166.523 142.537 166.974C142.423 167.369 142.196 167.708 141.912 167.933C141.628 168.159 141.231 168.272 140.72 168.272ZM140.72 167.369C141.004 167.369 141.231 167.313 141.344 167.2C141.515 167.087 141.572 166.918 141.628 166.636C141.685 166.41 141.685 166.128 141.685 165.79V162.067C141.685 161.728 141.685 161.503 141.628 161.277C141.572 161.051 141.458 160.882 141.344 160.769C141.174 160.656 141.004 160.6 140.72 160.6C140.436 160.6 140.209 160.656 140.095 160.769C139.925 160.882 139.868 161.051 139.811 161.277C139.754 161.503 139.754 161.785 139.754 162.067V165.79C139.754 166.128 139.754 166.354 139.811 166.636C139.868 166.862 139.982 167.031 140.095 167.2C140.209 167.313 140.436 167.369 140.72 167.369Z" fill="black"/>
<path d="M143.843 168.215V159.754H147.08V160.6H144.865V163.251H145.092C145.66 163.251 146.115 163.308 146.455 163.477C146.796 163.646 147.08 163.872 147.25 164.21C147.421 164.549 147.534 165.056 147.534 165.733C147.534 166.185 147.477 166.523 147.421 166.862C147.307 167.144 147.193 167.426 146.966 167.651C146.796 167.877 146.512 167.99 146.228 168.103C145.944 168.215 145.603 168.215 145.149 168.215H143.843ZM144.865 167.369H145.149C145.433 167.369 145.717 167.313 145.944 167.256C146.171 167.2 146.285 167.031 146.398 166.805C146.512 166.579 146.569 166.241 146.569 165.733C146.569 165.169 146.455 164.718 146.285 164.492C146.115 164.267 145.717 164.154 145.206 164.154H144.922V167.369H144.865Z" fill="black"/>
<path d="M148.443 168.215V159.754H149.522V163.251H149.806C150.374 163.251 150.828 163.308 151.169 163.477C151.509 163.646 151.793 163.872 151.964 164.21C152.134 164.549 152.248 165.056 152.248 165.733C152.248 166.185 152.191 166.523 152.134 166.862C152.02 167.144 151.907 167.426 151.68 167.651C151.509 167.877 151.225 167.99 150.942 168.103C150.658 168.215 150.317 168.215 149.863 168.215H148.443ZM149.522 167.369H149.863C150.203 167.369 150.43 167.313 150.658 167.256C150.885 167.2 150.998 167.031 151.112 166.805C151.225 166.579 151.282 166.241 151.282 165.733C151.282 165.169 151.169 164.718 150.998 164.492C150.771 164.267 150.43 164.154 149.919 164.154H149.579V167.369H149.522ZM153.043 168.215V159.754H154.122V168.215H153.043Z" fill="black"/>
<path d="M156.109 168.215V160.656H154.803V159.754H158.381V160.656H157.132V168.215H156.109Z" fill="black"/>
<path d="M159.119 168.215V159.754H160.027V165.621L162.242 159.754H162.98V168.215H162.072V162.292L159.857 168.215H159.119Z" fill="black"/>
<path d="M164.23 168.215V159.754H167.183V160.656H165.309V163.477H166.842V164.323H165.309V167.426H167.183V168.272H164.23V168.215Z" fill="black"/>
<path d="M167.978 140.969C166.899 141.195 165.763 141.59 164.684 141.646C161.447 141.703 158.154 141.646 154.917 141.646C153.781 141.646 152.588 141.759 151.453 141.759C150.828 141.759 150.26 141.533 149.635 141.421C149.408 141.364 149.181 141.308 148.954 141.308C147.25 141.364 145.433 141.082 143.9 141.646C141.856 142.323 139.982 141.872 138.051 141.928C136.29 141.985 134.473 142.267 132.713 142.323C131.407 142.379 130.101 142.267 128.794 142.21C128.624 142.21 128.397 142.154 128.227 142.154C124.365 142.323 120.503 142.605 116.699 142.718C114.654 142.774 112.61 142.549 110.566 142.492C109.771 142.492 108.976 142.718 108.181 142.774C105.739 142.831 103.354 142.774 100.912 142.831C99.2649 142.831 97.618 142.944 95.9144 143C93.87 143 91.8257 143 89.7245 143C88.3616 143 86.9987 143.113 85.6358 143.169C84.5001 143.226 83.3643 143.338 82.2286 143.338C81.7743 143.338 81.3768 143.169 80.9225 143.113C80.6953 143.056 80.4682 142.944 80.241 143C79.162 143.169 78.0831 143.395 77.0609 143.621C77.0041 143.621 76.8905 143.677 76.8338 143.677C75.2437 142.774 73.5401 143.959 71.8364 143.451C70.7007 143.113 69.3378 143.677 68.0317 143.733C67.0663 143.79 66.1009 143.677 65.1355 143.621C64.6244 143.564 64.0565 143.395 63.5455 143.508C59.3432 144.41 55.0841 144.015 50.825 144.185C46.7363 144.354 42.6476 144.241 38.5589 144.297C33.9591 144.354 29.4161 144.467 24.8163 144.467C20.614 144.467 16.4117 144.354 12.2094 144.297C8.85896 144.241 5.4517 144.128 2.10123 144.015C1.70372 144.015 1.3062 143.903 0.908691 143.621C1.36299 143.564 1.76051 143.451 2.21481 143.451C9.25647 143.395 16.2981 143.451 23.3398 143.338C31.6308 143.169 39.9218 142.831 48.2696 142.605C52.4719 142.492 56.6174 142.492 60.8196 142.436C62.2961 142.436 63.7726 142.267 65.2491 142.267C67.6342 142.323 70.0192 142.492 72.4611 142.492C74.3351 142.492 76.2091 142.323 78.0831 142.267C79.446 142.21 80.8657 142.21 82.2286 142.154C83.4779 142.097 84.6704 142.041 85.9198 141.985C86.4309 141.985 86.8852 142.041 87.3962 142.041C89.327 142.041 91.3146 142.041 93.2454 141.985C95.2329 141.928 97.2205 141.646 99.2081 141.59C102.388 141.533 105.512 141.59 108.692 141.533C110.395 141.533 112.099 141.421 113.802 141.364C115.506 141.308 117.21 141.251 118.97 141.251C119.311 141.251 119.708 141.477 120.049 141.477C121.469 141.477 122.889 141.477 124.308 141.364C125.103 141.308 125.955 141.026 126.75 141.026C131.18 140.913 134.757 140.856 139.073 140.856C142.083 140.8 145.092 140.969 148.045 140.744C150.942 140.518 153.781 140.856 156.677 141.026C160.255 141.251 163.889 140.856 167.524 140.744C167.637 140.744 167.751 140.744 167.864 140.744C167.921 140.8 167.978 140.913 167.978 140.969Z" fill="#7A0000"/>
</svg>
