<svg width="120" height="120" viewBox="0 0 120 120" fill="none" xmlns="http://www.w3.org/2000/svg">
<rect width="120" height="120" fill="white"/>
<rect x="45.9648" y="70.89" width="27.7778" height="8.92562" fill="#7A0000"/>
<path d="M84.2719 75.1875C84.2719 83.8029 84.2719 92.3624 84.2719 100.978C84.2719 102.936 83.5147 103.607 81.3063 103.663C76.7633 103.663 72.2203 103.663 67.6773 103.663C66.9832 103.663 66.2891 103.719 65.9105 102.936C65.7843 102.712 65.2165 102.6 64.901 102.6C64.27 102.544 63.639 102.6 63.0081 102.6C61.3675 102.6 61.3044 102.544 61.3044 101.146C61.3044 94.768 61.3044 88.3903 61.3044 82.0127C61.3044 81.0057 61.683 80.6141 62.8188 80.3903C67.6142 79.6071 70.8952 76.1386 70.8952 71.8309C70.8952 67.0757 70.8952 62.3764 70.8952 57.6211C70.8952 56.2785 70.8321 56.2225 69.2547 56.2225C66.9832 56.2225 64.6486 56.2225 62.3771 56.2225C61.4306 56.2225 60.989 55.9428 61.052 55.0477C61.1151 53.8729 61.1782 52.6421 61.052 51.4673C60.6735 48.1106 62.1878 45.3134 64.5224 42.7959C65.6582 41.5652 66.7939 40.2785 67.6773 38.8799C68.3713 37.761 68.8761 36.4743 68.9392 35.2435C69.0654 29.8729 69.0023 24.5022 68.9392 19.1316C68.9392 16.782 68.813 17.0057 71.2738 17.0057C72.5358 17.0057 73.7977 17.0057 75.0597 17.0057C76.574 17.0057 76.574 17.0617 76.574 18.3484C76.574 23.8868 76.6371 29.4253 76.574 34.9638C76.574 36.5861 77.0788 37.9847 78.1514 39.2715C79.4134 40.782 80.7384 42.2924 82.0004 43.8029C83.5147 45.705 84.335 47.775 84.335 50.1806C84.2719 58.5162 84.2719 66.8519 84.2719 75.1875Z" fill="black"/>
<path d="M36.0656 75.0757C36.0656 67.0757 36.1918 59.0757 36.0025 51.0757C35.9394 48.0547 37.0752 45.6491 38.9681 43.2995C40.4824 41.4533 41.9967 39.5512 43.3218 37.5932C43.7635 36.9218 43.8266 35.9708 43.8897 35.1876C43.9528 29.5932 43.8897 23.9428 43.8897 18.3484C43.8897 17.0058 43.8897 17.0058 45.404 17.0058C46.9814 17.0058 48.5589 17.0617 50.1363 17.0058C51.3352 16.9498 51.6506 17.3974 51.6506 18.3484C51.6506 23.5512 51.8399 28.754 51.6506 33.9009C51.5245 36.81 52.8495 39.0477 54.8055 41.2295C56.3199 42.9638 57.5818 44.8659 58.7807 46.768C59.2223 47.4953 59.2854 48.4463 59.2854 49.3414C59.3485 51.1876 59.2854 53.0337 59.3485 54.9358C59.4116 55.9428 58.9699 56.2225 57.8973 56.1666C55.6258 56.1107 53.2912 56.1666 51.0197 56.1107C49.947 56.1107 49.5684 56.4463 49.5684 57.3974C49.5684 62.3764 49.5684 67.3554 49.5684 72.3344C49.5684 76.3065 53.165 79.4953 57.3294 80.2785C59.1592 80.6141 59.1592 80.5582 59.1592 82.1806C59.1592 88.5023 59.1592 94.8239 59.1592 101.146C59.1592 102.488 59.0961 102.488 57.6449 102.488C56.9508 102.488 56.1937 102.488 55.4996 102.488C54.8686 102.488 54.3007 102.488 54.1114 103.216C54.0483 103.383 53.5436 103.607 53.2912 103.607C48.1803 103.607 43.0063 103.607 37.8954 103.607C36.8859 103.607 36.318 103.16 36.2549 102.264C36.1918 101.649 36.1287 101.034 36.1287 100.362C36.1287 94.2086 36.1287 88.1107 36.1287 81.9568C36.1287 79.6631 36.1287 77.3134 36.1287 75.0197C35.9394 75.0757 36.0025 75.0757 36.0656 75.0757Z" fill="black"/>
</svg>
