<svg width="16" height="16" viewBox="0 0 16 16" fill="none" xmlns="http://www.w3.org/2000/svg">
<path d="M11.548 15.1935L11.548 15.1935C10.4289 15.1208 9.43099 14.7047 8.70027 14.3575L8.69922 14.357C6.77022 13.4267 5.08359 12.1071 3.68003 10.4398L3.67938 10.439C2.52975 9.05928 1.74894 7.76249 1.22868 6.36234L1.22866 6.36227C0.891614 5.45415 0.754912 4.68637 0.812954 3.95372L0.813087 3.95203L0.813094 3.95203C0.866193 3.34681 1.11337 2.82123 1.54421 2.39187L1.54441 2.39167L2.63047 1.3124L2.63311 1.30978L2.63313 1.30981C2.97661 0.980936 3.38546 0.8 3.81774 0.8C4.25206 0.8 4.65503 0.980158 4.98703 1.30973C5.1647 1.47335 5.34216 1.65335 5.51148 1.82508C5.53478 1.84872 5.55794 1.8722 5.58091 1.89547C5.62983 1.94422 5.67866 1.99363 5.72723 2.04279L5.72868 2.04426C5.77809 2.09426 5.82727 2.14402 5.87712 2.1937L6.74258 3.05617C6.74262 3.05621 6.74266 3.05625 6.74269 3.05629C7.09973 3.41048 7.29276 3.8235 7.29276 4.25191C7.29276 4.68029 7.09976 5.09398 6.74291 5.44959C6.69772 5.49463 6.65318 5.53977 6.60835 5.58521L6.60701 5.58656C6.56312 5.63105 6.51891 5.67587 6.47459 5.72004C6.26487 5.93432 6.04573 6.15577 5.8126 6.37261C5.99233 6.7533 6.24021 7.13677 6.60441 7.59391C7.41241 8.58223 8.25271 9.34677 9.17619 9.93074C9.26265 9.98345 9.36242 10.0347 9.47799 10.0923C9.49241 10.0995 9.50718 10.1068 9.52222 10.1143C9.55724 10.1316 9.59372 10.1497 9.63076 10.1686L10.557 9.24553C10.8972 8.90652 11.307 8.71768 11.7445 8.71768C12.1855 8.71768 12.5928 8.90998 12.9242 9.25301L14.6666 10.9894C15.0134 11.3351 15.1987 11.7475 15.2 12.1747C15.2013 12.6011 15.0194 13.0185 14.6766 13.3755C14.6763 13.3758 14.676 13.3761 14.6757 13.3764L14.5315 13.2378C14.4 13.378 14.2593 13.5122 14.1216 13.6433L11.548 15.1935ZM11.548 15.1935L11.5519 15.1937L11.5615 15.1941C11.6248 15.197 11.6906 15.2 11.7598 15.2C12.5313 15.2 13.1837 14.9199 13.6935 14.3706L11.548 15.1935ZM4.6002 6.17358C4.58062 6.3292 4.61523 6.46619 4.65028 6.56765L11.6288 14.0474C11.6287 14.0474 11.6286 14.0473 11.6285 14.0473C10.7172 13.9889 9.86518 13.6345 9.20551 13.3225C7.42101 12.4662 5.86219 11.2495 4.56473 9.70408C3.49333 8.41919 2.78127 7.23128 2.31034 5.96388L2.31026 5.96365C2.01989 5.18505 1.9185 4.59667 1.96118 4.04707C1.99088 3.71306 2.11727 3.44075 2.35809 3.20343L2.35809 3.20343L2.35888 3.20264L3.43743 2.12781C3.57551 1.99579 3.70833 1.9439 3.8208 1.9439C3.92719 1.9439 4.05104 1.99305 4.19186 2.13078L4.19182 2.13082L4.19525 2.13402C4.38323 2.30945 4.56575 2.49419 4.76064 2.69145L4.76405 2.6949C4.86119 2.79473 4.96366 2.89995 5.06962 3.00247L5.93435 3.86423C6.09062 4.01996 6.14169 4.14732 6.14169 4.25C6.14169 4.35268 6.09062 4.48004 5.93435 4.63577L5.93369 4.63643C5.84261 4.7272 5.75012 4.81937 5.66049 4.91176C5.639 4.93342 5.61766 4.95494 5.59646 4.97633C5.35078 5.22417 5.12272 5.45424 4.87204 5.6766L4.87182 5.67635L4.86359 5.68455L4.84829 5.6998L4.98947 5.84146L4.84829 5.6998C4.69588 5.85168 4.62043 6.01288 4.6002 6.17358ZM4.65944 6.59199L4.66134 6.59768L4.66409 6.60429C4.8965 7.16269 5.22277 7.68773 5.71383 8.30717L5.71381 8.30718L5.7155 8.30926C6.59909 9.39371 7.53263 10.2413 8.56895 10.8976L8.56912 10.8977C8.70395 10.9829 8.84357 11.0539 8.97225 11.118C9.0884 11.1759 9.1886 11.2274 9.27536 11.2804L9.28271 11.2849L9.29041 11.2888L9.29747 11.2927C9.3024 11.2955 9.3123 11.3012 9.32407 11.3071C9.44542 11.3675 9.57062 11.4012 9.7039 11.4012C10.0289 11.4012 10.2314 11.1992 10.2908 11.1366L11.3747 10.0563C11.5152 9.91638 11.6447 9.86463 11.7506 9.86463C11.8816 9.86463 12.0065 9.94924 12.1093 10.0544L12.1112 10.0563L13.8611 11.8002C14.0396 11.9781 14.0661 12.1206 14.0509 12.2277C14.0338 12.3487 13.957 12.4708 13.8485 12.5844L13.8469 12.5861C13.7497 12.6902 13.649 12.7879 13.5399 12.8936C13.5167 12.9162 13.493 12.9392 13.4689 12.9626C13.2653 13.1564 13.0486 13.3659 12.8493 13.6018L4.65944 6.59199Z" fill="#7A0000" stroke="#7A0000" stroke-width="0.4"/>
</svg>
