<svg width="20" height="20" viewBox="0 0 20 20" xmlns="http://www.w3.org/2000/svg">
<rect width="19.0645" height="19.0645" fill="currentColor"/>
<path d="M14.2042 7.47205C14.2042 7.57631 14.2042 7.68056 14.2042 7.76993C14.2042 10.853 11.8509 14.4127 7.56142 14.4127C6.23584 14.4127 5.01451 14.0255 3.97192 13.3701C4.15065 13.385 4.34428 13.3999 4.52301 13.3999C5.61028 13.3999 6.62308 13.0276 7.42737 12.402C6.39967 12.3871 5.53581 11.702 5.25282 10.7785C5.40176 10.8083 5.53581 10.8232 5.69965 10.8232C5.90816 10.8232 6.11668 10.7934 6.31031 10.7339C5.23793 10.5253 4.43364 9.58702 4.43364 8.45506C4.43364 8.44017 4.43364 8.44017 4.43364 8.42527C4.74642 8.604 5.10388 8.70826 5.49113 8.72316C4.86557 8.30612 4.44854 7.5912 4.44854 6.77202C4.44854 6.34009 4.56769 5.93795 4.76131 5.59538C5.90816 7.01033 7.63589 7.93376 9.57213 8.03802C9.52744 7.87419 9.51255 7.68056 9.51255 7.50183C9.51255 6.20604 10.5551 5.16345 11.8509 5.16345C12.5212 5.16345 13.1318 5.44644 13.5489 5.89327C14.0851 5.78901 14.5766 5.59538 15.0383 5.32729C14.8596 5.87837 14.4872 6.3252 14.0106 6.62308C14.4872 6.5635 14.934 6.44435 15.3511 6.25073C15.0532 6.72734 14.6659 7.14437 14.2042 7.47205Z" fill="white"/>
</svg>
