<svg width="20" height="20" viewBox="0 0 20 20" xmlns="http://www.w3.org/2000/svg">
<rect width="19.0645" height="19.0645" fill="currentColor"/>
<path fill-rule="evenodd" clip-rule="evenodd" d="M15.5956 6.56724C15.684 6.27266 15.5956 6.05615 15.1751 6.05615H13.7846C13.431 6.05615 13.2682 6.24317 13.1798 6.44945C13.1798 6.44945 12.4726 8.17291 11.4709 9.29241C11.1468 9.61649 10.9995 9.71948 10.8228 9.71948C10.7344 9.71948 10.6064 9.61649 10.6064 9.32191V6.56724C10.6064 6.21367 10.5038 6.05615 10.2092 6.05615H8.02419C7.8033 6.05615 7.67042 6.22023 7.67042 6.37576C7.67042 6.71095 8.17118 6.78822 8.22282 7.73094V9.77857C8.22282 10.2275 8.14178 10.3089 7.96499 10.3089C7.49363 10.3089 6.34711 8.57763 5.66698 6.59674C5.5337 6.21168 5.40002 6.05615 5.04466 6.05615H3.65421C3.25694 6.05615 3.17749 6.24317 3.17749 6.44945C3.17749 6.81772 3.64895 8.64437 5.37241 11.0602C6.52151 12.7098 8.14019 13.6043 9.61327 13.6043C10.4972 13.6043 10.6064 13.4056 10.6064 13.0635V11.8166C10.6064 11.4193 10.6902 11.34 10.9699 11.34C11.1763 11.34 11.5298 11.4431 12.3548 12.2386C13.2976 13.1812 13.4529 13.6043 13.9832 13.6043H15.3737C15.771 13.6043 15.9696 13.4057 15.855 13.0136C15.7296 12.6229 15.2795 12.0562 14.6822 11.3842C14.3582 11.0012 13.872 10.5887 13.7248 10.3825C13.5185 10.1173 13.5774 9.99956 13.7248 9.76397C13.7248 9.76397 15.4188 7.37757 15.5956 6.56734V6.56724Z" fill="white"/>
</svg>
